<svg width="250" height="277" viewBox="0 0 66.145837 73.217947" xmlns="http://www.w3.org/2000/svg">
    <g id="canvas" transform="matrix(1.2185697,0,0,1.2200384,-153.8001,-149.74128)">
        <g id="tail" transform="matrix(0.9899308,0,0,0.9899308,-200.15541,-34.804261)">
            <path
                style="fill:#aa807c;fill-opacity:1;stroke-width:1.01427"
                d="m 405.13757,217.77189 c -11.11869,-0.92131 -13.06048,-2.30461 -13.06048,-5.31565 0,-3.35501 4.23034,-8.8795 14.28542,-9.79434 2.92112,-0.26578 1.97645,-0.70085 2.9629,-0.29701 0.57247,0.23435 0.94584,0.82807 1.19551,1.06163 0.86771,0.81169 0.92454,1.26303 1.11828,1.12713 0,0 0.43997,0.45194 0.34273,0.36302 0,0 -3.07798,0.20283 -3.19044,0.21954 -4.60456,0.68434 -14.37638,3.26278 -13.40124,7.70818 0.41312,1.88329 11.7306,2.74982 18.19457,3.25664 2.42319,0.18999 8.39577,0.17498 13.60046,-0.22642 8.70919,-0.67168 9.17067,-0.48643 9.2452,-0.095 0.0926,0.48625 -0.15003,1.60301 -4.35332,1.9001 -1.32031,0.0934 -2.70063,0.21679 -3.06738,0.27438 -2.04129,0.32053 -23.87221,-0.1822 -23.87221,-0.1822 z"
                id="outer_tail"
                transform="translate(-62.38835,1.7038835)" 
            />
            <path
                style="fill:#d1a098;fill-opacity:1;stroke-width:0.989558"
                d="m 405.55798,217.59519 c -10.83245,-0.90015 -13.21738,-2.18566 -13.09627,-5.12507 0.15473,-3.7558 4.2167,-8.57199 14.01295,-9.46584 2.84591,-0.25964 1.81966,-0.69306 2.71298,-0.27587 2.99992,3.21488 3.37816,1.75372 -0.5463,2.15489 -4.51195,0.46122 -16.00416,4.18778 -13.32665,8.39527 1.01097,1.58866 11.90069,2.54785 18.19895,3.03411 2.21531,0.17106 8.29356,0.47953 13.4793,-0.07 8.18496,-0.86731 9.31222,-0.67339 9.38481,-0.29092 0.0901,0.4751 -0.47867,1.3568 -4.57374,1.64707 -1.28632,0.0911 -2.63108,0.21182 -2.98839,0.26807 -1.98872,0.31318 -23.25764,-0.27174 -23.25764,-0.27174 z"
                id="inner_tail"
                transform="translate(-62.38835,1.7038835)" 
            />
        </g>
        <!-- <g id="rex" style="display:inline">
            <path
                style="display:inline;fill:#575757;fill-opacity:1;stroke-width:2.66805"
                d="m 140.88668,166.81702 c 0.0266,0.97318 0.18136,1.50867 0.51083,1.76832 0.26001,0.20486 0.53584,0.67664 0.61284,1.04843 0.0771,0.37176 0.32696,0.75639 0.5551,0.85479 0.22827,0.0984 0.35427,0.35601 0.28007,0.57271 -0.089,0.26018 0.0918,0.50052 0.53303,0.70811 0.36738,0.17287 0.67813,0.42764 0.69053,0.56625 0.0119,0.13853 0.53016,0.53196 1.15057,0.87407 0.62039,0.34211 1.23307,0.82278 1.36153,1.0682 l 23.17698,-0.63981 c 0.16784,0.12404 1.21053,-0.93641 1.37916,-0.79502 0.23507,0.19709 1.24019,-0.91227 1.51617,-1.11698 0.57118,-0.419 1.0344,-0.87576 1.0284,-1.01467 -0.006,-0.13906 0.26979,-0.43164 0.61184,-0.65029 0.41078,-0.26257 0.55919,-0.52415 0.43738,-0.77073 -0.10153,-0.20536 -0.01,-0.47705 0.20396,-0.60394 0.21356,-0.12692 0.41176,-0.54044 0.44036,-0.91903 0.0285,-0.3786 0.24123,-0.8819 0.47268,-1.11847 0.29328,-0.29983 0.30448,-1.64997 0.27878,-1.81927 -0.0333,-0.21958 -0.0453,-0.36564 -0.0212,-0.39884 0.26368,-0.36327 0.34314,-0.5185 0.17018,-0.73242 -0.14409,-0.17814 -0.11417,-0.46332 0.0665,-0.63391 0.18047,-0.17058 0.28317,-0.61744 0.22797,-0.99308 -0.0553,-0.37564 0.0418,-0.91327 0.21574,-1.19475 0.22035,-0.35675 0.18189,-0.91278 -0.12724,-1.83607 -0.29654,-0.88551 -0.34915,-1.53238 -0.15885,-1.95225 0.23777,-0.52414 0.20767,-0.65254 -0.18158,-0.7754 -0.29675,-0.0938 -0.55385,-0.54972 -0.70605,-1.25376 -0.16003,-0.73911 -0.38679,-1.12652 -0.68288,-1.16732 -0.2438,-0.0334 -0.41697,-0.2366 -0.38297,-0.45083 0.0331,-0.21449 -0.39689,-0.43447 -0.56514,-0.67479 -0.1335,-0.19066 -0.0867,-1.04983 -0.0867,-1.04983 0.063,-0.75357 -0.0406,-1.19023 -0.31189,-1.3156 -0.2234,-0.10308 -0.3296,-0.34788 -0.2345,-0.54286 0.0944,-0.19548 -0.06,-0.56012 -0.34327,-0.81019 -0.38951,-0.34402 -0.25112,-1.02372 -0.36561,-1.21962 -0.0545,-0.0932 -0.7599,-0.37322 -0.87528,-0.40802 -0.2982,-0.09 -0.49436,-0.61819 -0.49436,-0.61819 l -0.3301,-0.632 c -0.0466,-0.12586 -0.0364,-0.48721 0.0227,-0.8031 0.071,-0.37933 -0.35033,-0.47974 -0.47524,-0.66526 -0.10409,-0.15448 -0.19709,-0.62468 -0.15709,-0.81311 0.0399,-0.18839 -0.0177,-0.63489 -0.12811,-0.99222 -0.11121,-0.35728 -0.62566,-0.89116 -0.61396,-1.1863 0.0146,-0.37405 0.3044,-0.90852 -0.0431,-1.76477 -0.33328,-0.82122 -0.50487,-1.44199 -0.51787,-1.87343 -0.0161,-0.53863 -0.0588,-0.65942 -0.25765,-0.72902 -0.1516,-0.0532 -0.36899,-0.46283 -0.59737,-1.12636 -0.23982,-0.69657 -0.42817,-1.04347 -0.56735,-1.04547 -0.1146,-0.001 -0.0543,-0.37506 -0.0543,-0.37506 0,0 0.001,-0.48808 -0.18554,-0.59622 -0.25686,-0.14883 -0.30319,-0.45707 -0.53581,-1.00735 l -2.14284,-4.1856 c -0.25204,-0.0529 -0.95827,-0.56909 -1.43675,-1.06432 -0.47848,-0.49524 -0.97252,-0.87848 -1.09731,-0.85028 -0.12502,0.0276 -0.43776,-0.19674 -0.69508,-0.49845 -0.309,-0.36238 -0.57167,-0.46673 -0.77399,-0.30768 -0.16847,0.1325 -0.43051,0.0854 -0.58247,-0.10462 -0.15196,-0.18992 -0.56092,-0.31912 -0.90888,-0.28702 -0.34795,0.0322 -0.84075,-0.097 -1.09515,-0.2871 -0.32243,-0.24085 -0.8362,-0.23635 -1.69653,0.0151 -0.82514,0.24116 -1.42308,0.25426 -1.80458,0.0395 -0.47619,-0.26814 -0.59543,-0.246 -0.72019,0.13369 -0.0952,0.28947 -0.52321,0.51718 -1.17673,0.62616 -0.68614,0.1143 -1.05003,0.31632 -1.09633,0.60833 -0.038,0.24048 -0.23041,0.40036 -0.42693,0.35356 -0.19676,-0.046 -0.48428,0.18848 -0.63876,0.52113 -0.21256,0.45746 -0.49697,0.38221 -1.05287,0.56331 0,0 -3.07426,5.14219 -3.10586,4.94347 l -0.34614,0.8362 c -0.1598,0.5756 -0.16603,0.88724 -0.40158,1.06784 -0.17127,0.13124 -0.10719,0.61511 -0.10719,0.61511 0,0 0.10793,0.36276 -0.006,0.37892 -0.13777,0.0199 -0.27986,0.38809 -0.42795,1.10969 -0.141,0.68737 -0.30382,1.12151 -0.4473,1.19377 -0.18822,0.0946 -0.21497,0.21985 -0.16159,0.75607 0.0427,0.42953 -0.0475,1.06719 -0.27221,1.92442 -0.23431,0.89379 0.12194,1.38657 0.1846,1.75564 0.0496,0.29118 -0.39177,0.88674 -0.45602,1.25534 -0.0635,0.36855 -0.063,0.81873 7.8e-4,1.00043 0.0639,0.18173 0.0323,0.65997 -0.051,0.82654 -0.1,0.20004 -0.50482,0.35375 -0.38558,0.72081 0.0993,0.30567 0.15597,0.6627 0.12597,0.79351 l -0.13661,0.27506 c 0.19663,-0.0437 0.17738,0.98742 -0.36756,1.22545 -0.38121,0.16651 -0.39663,1.22761 -0.73859,1.61883 -0.24867,0.28439 -0.35483,0.66585 -0.23604,0.84757 0.11943,0.18114 0.0456,0.43755 -0.16261,0.56848 -0.25286,0.15919 -0.29937,0.45219 -0.13982,1.1914 l -0.19851,0.12006 c -0.1399,0.61908 -0.0436,0.91952 -0.48503,1.19397 -0.32097,0.19949 -0.534,0.53336 -0.47351,0.74181 0.0613,0.20808 -0.0842,0.43179 -0.32171,0.4963 -0.28837,0.0785 -0.46333,0.49185 -0.52682,1.24538 -0.0602,0.71775 -0.25645,1.20296 -0.53866,1.33408 -0.37018,0.17186 -0.38349,0.30306 -0.0802,0.79229 0.24281,0.39192 0.27398,1.04017 0.094,1.95643 -0.18762,0.95535 -0.15412,1.5117 0.11035,1.83716 0.20873,0.25679 0.37427,0.77747 0.36787,1.15709 -0.006,0.37961 0.15306,0.80956 0.35401,0.95553 0.20114,0.14595 0.26755,0.42492 0.14761,0.62009 -0.14396,0.23437 -0.0203,0.50847 0.36467,0.80759 z"
                id="rex_fur" 
            />
            <path
                style="display:inline;fill:#3e3e3e;fill-opacity:0.133333;stroke-width:2.66805"
                d="m 140.88668,166.81702 c 0.0266,0.97318 0.18136,1.50867 0.51083,1.76832 0.26001,0.20486 0.53584,0.67664 0.61284,1.04843 0.0771,0.37176 0.32696,0.75639 0.5551,0.85479 0.22827,0.0984 0.35427,0.35601 0.28007,0.57271 -0.089,0.26018 0.0918,0.50052 0.53303,0.70811 0.36738,0.17287 0.67813,0.42764 0.69053,0.56625 0.0119,0.13853 0.53016,0.53196 1.15057,0.87407 0.62039,0.34211 1.23307,0.82278 1.36153,1.0682 l 23.17698,-0.63981 c 0.16784,0.12404 1.21053,-0.93641 1.37916,-0.79502 0.23507,0.19709 1.24019,-0.91227 1.51617,-1.11698 0.57118,-0.419 1.0344,-0.87576 1.0284,-1.01467 -0.006,-0.13906 0.26979,-0.43164 0.61184,-0.65029 0.41078,-0.26257 0.55919,-0.52415 0.43738,-0.77073 -0.10153,-0.20536 -0.01,-0.47705 0.20396,-0.60394 0.21356,-0.12692 0.41176,-0.54044 0.44036,-0.91903 0.0285,-0.3786 0.24123,-0.8819 0.47268,-1.11847 0.29328,-0.29983 0.30448,-1.64997 0.27878,-1.81927 -0.0333,-0.21958 -0.0453,-0.36564 -0.0212,-0.39884 0.26368,-0.36327 0.34314,-0.5185 0.17018,-0.73242 -0.14409,-0.17814 -0.11417,-0.46332 0.0665,-0.63391 0.18047,-0.17058 0.28317,-0.61744 0.22797,-0.99308 -0.0553,-0.37564 0.0418,-0.91327 0.21574,-1.19475 0.22035,-0.35675 0.18189,-0.91278 -0.12724,-1.83607 -0.29654,-0.88551 -0.34915,-1.53238 -0.15885,-1.95225 0.23777,-0.52414 0.20767,-0.65254 -0.18158,-0.7754 -0.29675,-0.0938 -0.55385,-0.54972 -0.70605,-1.25376 -0.16003,-0.73911 -0.38679,-1.12652 -0.68288,-1.16732 -0.2438,-0.0334 -0.41697,-0.2366 -0.38297,-0.45083 0.0331,-0.21449 -0.39689,-0.43447 -0.56514,-0.67479 -0.1335,-0.19066 -0.0867,-1.04983 -0.0867,-1.04983 0.063,-0.75357 -0.0406,-1.19023 -0.31189,-1.3156 -0.2234,-0.10308 -0.3296,-0.34788 -0.2345,-0.54286 0.0944,-0.19548 -0.06,-0.56012 -0.34327,-0.81019 -0.38951,-0.34402 -0.25112,-1.02372 -0.36561,-1.21962 -0.0545,-0.0932 -0.7599,-0.37322 -0.87528,-0.40802 -0.2982,-0.09 -0.49436,-0.61819 -0.49436,-0.61819 l -0.3301,-0.632 c -0.0466,-0.12586 -0.0364,-0.48721 0.0227,-0.8031 0.071,-0.37933 -0.35033,-0.47974 -0.47524,-0.66526 -0.10409,-0.15448 -0.19709,-0.62468 -0.15709,-0.81311 0.0399,-0.18839 -0.0177,-0.63489 -0.12811,-0.99222 -0.11121,-0.35728 -0.62566,-0.89116 -0.61396,-1.1863 0.0146,-0.37405 -24.58138,-1.29241 -25.25513,1.10996 l 0.0603,0.22913 c 0.0496,0.29118 -0.39259,0.88681 -0.45684,1.25541 -0.0635,0.36855 -0.063,0.81873 7.8e-4,1.00043 0.0639,0.18173 0.0323,0.65997 -0.051,0.82654 -0.1,0.20004 -0.50482,0.35375 -0.38558,0.72081 0.0993,0.30567 0.15597,0.6627 0.12597,0.79351 l -0.13661,0.27506 c 0.19663,-0.0437 0.17738,0.98742 -0.36756,1.22545 -0.38121,0.16651 -0.39663,1.22761 -0.73859,1.61883 -0.24867,0.28439 -0.35483,0.66585 -0.23604,0.84757 0.11943,0.18114 0.0456,0.43755 -0.16261,0.56848 -0.25286,0.15919 -0.29937,0.45219 -0.13982,1.1914 l -0.19851,0.12006 c -0.1399,0.61908 -0.0436,0.91952 -0.48503,1.19397 -0.32097,0.19949 -0.534,0.53336 -0.47351,0.74181 0.0613,0.20808 -0.0842,0.43179 -0.32171,0.4963 -0.28837,0.0785 -0.46333,0.49185 -0.52682,1.24538 -0.0602,0.71775 -0.25645,1.20296 -0.53866,1.33408 -0.37018,0.17186 -0.38349,0.30306 -0.0802,0.79229 0.24281,0.39192 0.27398,1.04017 0.094,1.95643 -0.18762,0.95535 -0.15412,1.5117 0.11035,1.83716 0.20873,0.25679 0.37427,0.77747 0.36787,1.15709 -0.006,0.37961 0.15306,0.80956 0.35401,0.95553 0.20114,0.14595 0.26755,0.42492 0.14761,0.62009 -0.14396,0.23437 -0.0203,0.50847 0.36467,0.80759 z"
                id="rex_shadow" 
            />
        </g> -->
        <path
            id="body"
            style="display:inline;fill:#575757;fill-opacity:1;stroke-width:0.989932"
            d="m 167.25359,134.14376 0.17797,1.93241 0.61697,1.63976 0.17653,0.89259 0.0443,0.70912 c 0,0 0.0328,0.83592 0.0719,0.7902 l 0.38868,0.89939 0.31522,0.8994 0.11977,0.44389 0.10919,0.3799 0.0725,0.38005 0.0605,0.46298 1.23052,2.00208 0.17239,0.78373 c -0.0227,0.026 0.71933,1.58141 0.71933,1.58141 l 1.71089,3.66193 1.7109,3.66191 0.49982,1.61407 0.49982,1.61408 0.17148,1.52895 0.17149,1.52895 -0.30443,1.70247 -0.30444,1.70248 -0.61607,1.36055 -0.61608,1.36055 c -0.20712,0.4626 -0.51104,1.15468 -0.51104,1.15468 l -0.55869,1.36237 -1.35948,1.51215 -1.68384,1.31756 -2.21553,1.05036 -2.6048,1.01792 -7.14431,-0.047 -7.14432,-0.047 -0.72608,-0.0169 -0.72607,-0.0169 -1.189,-0.0909 -1.49467,-0.21352 -0.0484,-1.15872 -0.89001,-0.56225 -0.33764,-0.52901 -0.41095,-0.42546 -1.37739,-1.28795 -1.37737,-1.28794 -0.76925,-1.11759 -0.76923,-1.11758 -0.53851,-1.50161 -0.5385,-1.5016 -0.021,-2.48823 -0.021,-2.48823 0.43413,-1.44623 0.43414,-1.44621 1.1937,-2.55447 1.19371,-2.55447 0.39732,-1.49961 0.39732,-1.49961 -0.0562,-1.04767 -0.0561,-1.04769 0.31221,-0.57875 0.31223,-0.57875 0.16357,-1.25468 0.28829,-1.2443 0.11614,-0.22559 0.13691,-0.30863 0.15923,-0.84109 0.15924,-0.84107 0.0347,-0.30124 0.11715,-0.72647 0.12401,-0.69508 0.0332,-0.62114 0.0851,-0.67304 0.40953,-1.19405 0.10996,-1.38812 c 0.12357,-1.56001 1.2838,-3.47379 2.19131,-4.90612 0.90751,-1.43232 2.24909,-1.99315 3.84972,-2.52572 0.0173,0.0422 1.14756,-0.28009 1.60554,-0.27775 0.96525,-0.15375 1.9306,-0.15954 2.9038,-0.15954 h 1.32781 c 1.56239,-0.009 2.08552,0.19819 3.09761,0.51738 1.75566,0.6088 3.20139,2.00104 4.20822,3.67482 1.00682,1.67378 1.57473,3.19536 1.57473,3.19536 z" 
        />
        <!-- <path
            id="hairless_body"
            style="display:inline;fill:#aa807c;fill-opacity:1;stroke-width:0.989932"
            d="m 167.25359,134.14376 0.17797,1.93241 0.61697,1.63976 0.17653,0.89259 0.0443,0.70912 c 0,0 0.0328,0.83592 0.0719,0.7902 l 0.38868,0.89939 0.31522,0.8994 0.11977,0.44389 0.10919,0.3799 0.0725,0.38005 0.0605,0.46298 1.23052,2.00208 0.17239,0.78373 c -0.0227,0.026 0.71933,1.58141 0.71933,1.58141 l 1.71089,3.66193 1.7109,3.66191 0.49982,1.61407 0.49982,1.61408 0.17148,1.52895 0.17149,1.52895 -0.30443,1.70247 -0.30444,1.70248 -0.61607,1.36055 -0.61608,1.36055 c -0.20712,0.4626 -0.51104,1.15468 -0.51104,1.15468 l -0.55869,1.36237 -1.35948,1.51215 -1.68384,1.31756 -2.21553,1.05036 -2.6048,1.01792 -7.14431,-0.047 -7.14432,-0.047 -0.72608,-0.0169 -0.72607,-0.0169 -1.189,-0.0909 -1.49467,-0.21352 -0.0484,-1.15872 -0.89001,-0.56225 -0.33764,-0.52901 -0.41095,-0.42546 -1.37739,-1.28795 -1.37737,-1.28794 -0.76925,-1.11759 -0.76923,-1.11758 -0.53851,-1.50161 -0.5385,-1.5016 -0.021,-2.48823 -0.021,-2.48823 0.43413,-1.44623 0.43414,-1.44621 1.1937,-2.55447 1.19371,-2.55447 0.39732,-1.49961 0.39732,-1.49961 -0.0562,-1.04767 -0.0561,-1.04769 0.31221,-0.57875 0.31223,-0.57875 0.16357,-1.25468 0.28829,-1.2443 0.11614,-0.22559 0.13691,-0.30863 0.15923,-0.84109 0.15924,-0.84107 0.0347,-0.30124 0.11715,-0.72647 0.12401,-0.69508 0.0332,-0.62114 0.0851,-0.67304 0.40953,-1.19405 0.10996,-1.38812 c 0.12357,-1.56001 1.2838,-3.47379 2.19131,-4.90612 0.90751,-1.43232 2.24909,-1.99315 3.84972,-2.52572 0.0173,0.0422 1.14756,-0.28009 1.60554,-0.27775 0.96525,-0.15375 1.9306,-0.15954 2.9038,-0.15954 h 1.32781 c 1.56239,-0.009 2.08552,0.19819 3.09761,0.51738 1.75566,0.6088 3.20139,2.00104 4.20822,3.67482 1.00682,1.67378 1.57473,3.19536 1.57473,3.19536 z" 
        /> -->
        <path
            id="secondary_color"
            style="display:inline;fill:#b4b4b4;fill-opacity:1"
            d="m 444.27475,196.35923 1.19877,-0.61842 0.56103,-0.13822 0.71603,-0.35537 0.72454,-0.22646 1.05902,-0.28916 1.42152,-0.33117 1.17067,-0.66566 0.7029,-0.56727 0.78652,-0.50458 0.51086,0.38356 0.041,0.84659 -0.39802,1.68276 -0.21738,1.64472 -0.21738,1.64471 -0.43545,1.19063 -0.43544,1.19062 -0.87744,1.5875 -0.87744,1.5875 -1.44159,1.42065 -1.44159,1.42065 -0.29584,-0.18284 -0.29584,-0.18284 -0.80864,0.68042 -0.80863,0.68042 h -1.00496 -1.00496 l -0.76071,0.13551 -0.76068,0.1355 -0.51359,-0.40009 -0.51359,-0.40009 h -0.45829 -0.4583 l -0.74791,-0.62207 -0.7479,-0.62207 -0.36442,0.12618 -0.36443,0.12619 -0.88198,-0.96273 -0.88198,-0.96274 -0.76894,-1.12106 -0.76894,-1.12107 -0.80925,-1.60713 -0.80925,-1.60712 -0.38012,-2.22934 -0.38013,-2.22933 0.14508,-0.85334 0.4081,-0.90748 0.44989,0.32589 1.00557,0.48081 1.82228,0.87438 1.06971,0.24724 0.81415,0.60607 1.0859,0.31344 1.23355,0.0357 0.80356,-0.28216 -0.18464,-0.63859 -1.02692,-1.60622 -1.02692,-1.60621 0.10563,-1.05389 0.10562,-1.05389 0.57003,0.16101 0.57003,0.16101 0.54447,0.18912 0.41902,0.0637 0.50743,-0.2177 0.51504,0.0166 0.53593,-0.37017 0.69847,-0.3577 0.53687,0.35468 0.50807,0.21708 0.86988,0.28946 0.47386,0.66524 0.003,0.37576 0.36251,0.0658 0.50724,-0.18751 v 0.49046 0.49048 l -0.93869,1.58953 -0.93869,1.58952 -0.22238,0.56139 c 0.25018,0.11784 0.47419,0.28297 0.7055,0.43321 z"
            transform="matrix(0.98993078,0,0,0.98993078,-279.89296,-33.181235)" 
        />
        <path
            id="shadow"
            style="display:inline;fill:#3e3e3e;fill-opacity:0.134715"
            d="m 165.51923,159.25863 -0.11599,0.17043 -2.02841,1.33513 -0.30324,0.14634 -0.17153,0.14633 -0.16096,0.16223 -0.1317,0.11834 -0.36933,0.44796 -0.39986,0.22397 -0.82451,0.52079 -0.91131,0.45575 -0.99385,0.24016 -1.05594,-0.13232 -0.83097,-0.41071 -0.70678,-0.0796 -0.65704,0.19811 -0.94675,0.0946 -0.7045,-0.0844 -0.72522,-0.4569 -0.59585,-0.86198 -0.76139,-0.61363 -1.74925,-0.61179 -1.79063,-0.94291 -0.77349,-0.509 -0.24332,-0.79168 -2.3356,-2.11765 -1.05513,-1.32519 v -1.00213 -1.00213 l -0.1606,-0.41851 -0.1606,-0.41852 h -0.23295 -0.23294 l -0.90513,1.79734 -0.90512,1.79733 -0.58296,1.91927 -0.58296,1.91927 0.1,2.70151 0.1,2.70151 0.5367,0.92407 0.53669,0.92408 1.31108,0.72142 1.31108,0.72142 0.22675,0.006 0.22674,0.006 -0.12429,-0.33073 -0.12429,-0.33073 -0.19913,-0.63534 -0.19913,-0.63534 0.40802,0.15658 0.40802,0.15657 0.67878,-0.31499 0.67878,-0.31498 0.002,-0.59532 0.002,-0.59531 h 0.52379 0.52379 l 0.56672,1.11087 0.56672,1.11087 0.96001,1.44888 0.49281,-0.1334 0.52415,0.28052 0.52415,0.28052 v 0.23339 0.23339 l 1.25677,0.44405 1.25677,0.44405 1.14739,0.53388 1.14739,0.53388 0.29459,-0.29459 0.29459,-0.29459 h 1.41968 1.41969 l 0.57792,-0.29764 0.57792,-0.29765 0.59531,-0.54222 0.59531,-0.54223 v -0.61534 -0.61533 l 1.05174,-1.09959 0.40347,-1.23707 0.44358,-0.53178 0.44357,-0.53178 0.51291,0.13413 0.51291,0.13413 1.55706,-1.74117 1.55705,-1.74116 0.15062,-1.5e-4 0.15061,-1.5e-4 -0.22146,1.8542 -0.13014,2.02307 0.37715,-0.24106 0.45312,-0.0892 0.1444,0.55218 0.1444,0.55218 0.29987,0.004 0.29987,0.004 0.54793,0.14715 0.54793,0.14715 0.7126,-1.07681 0.71259,-1.0768 h 0.35523 0.35522 l 0.81505,-2.05052 0.81505,-2.05052 0.18755,1.15479 0.18755,1.1548 0.18979,-0.36105 0.18979,-0.36104 -0.18972,-1.74182 -0.18972,-1.74182 -0.45899,-1.1686 -0.45899,-1.16859 -0.76725,-0.61286 -0.76725,-0.61285 -0.24468,0.15122 -0.24468,0.15122 -0.17833,1.05556 -0.17834,1.05556 -0.25705,0.15887 -0.25705,0.15886 0.18219,0.82952 0.18219,0.82952 -0.44085,-0.36588 -0.44085,-0.36587 -0.73251,0.70179 -0.73252,0.7018 h -0.16294 -0.16293 l -0.17434,-0.79375 -0.17434,-0.79375 h -0.49253 -0.49253 l -0.16663,0.26961 -0.16663,0.26961 -1.27176,0.64446 z m -7.99755,1.15442 0.55714,-0.22398 0.52131,-0.31354 0.72052,-0.75166 0.39816,-0.4114 0.86379,-1.00238 0.50562,-0.28604 -0.52057,0.82615 -0.61564,1.12341 1.40804,0.31752 1.30058,-1.13308 0.74541,-0.25555 1.01171,-1.07592 1.0022,-0.78935 1.0022,-0.78934 0.51561,-1.01069 0.51562,-1.01069 0.52026,-0.36441 0.52027,-0.3644 0.2934,-0.7717 0.2934,-0.77169 0.0556,-0.0962 -0.0323,-1.32878 -0.0323,-1.32878 -0.005,-0.83038 -0.005,-0.83039 -0.76332,-0.7313 -0.76332,-0.73131 -1.1186,0.0532 -0.49991,0.26545 -0.55341,0.34756 -0.59994,0.53749 -0.77037,0.57332 -0.85526,0.52949 -1.07271,0.47756 -1.47434,0.57047 -2.05453,0.22164 -1.78028,0.029 -1.83552,-0.19 -1.60758,-0.342 -1.78552,-0.46644 -1.35331,-0.54624 -1.01943,-0.67373 -0.60153,-0.60673 -0.57619,-0.50543 -0.42103,-0.22207 -0.55985,-0.30445 -0.3406,-0.33824 -0.41071,-0.67618 -0.21029,-0.52165 -0.264,-0.36048 -0.23962,-0.10745 -0.2396,-0.0448 -0.0392,0.46302 -0.0392,0.46302 -0.0294,0.39687 -0.0294,0.39688 -0.38102,0.66146 -0.38102,0.66145 0.006,2.82443 0.006,2.82442 -0.0556,0.0962 0.90648,1.80578 0.90649,1.80579 1.98437,1.0125 1.98438,1.01251 1.43095,0.58156 1.27899,0.70819 0.54564,0.31433 0.50421,0.33569 0.48383,-0.57423 0.20992,-0.59976 -0.76301,-1.1052 -0.35301,-0.60114 0.45213,0.19986 0.61024,0.5289 0.46082,0.46138 0.55906,0.67862 0.70974,0.70231 0.61607,0.82843 z m -13.67487,-11.46481 0.20608,-0.73895 -0.0591,-1.08959 -0.0592,-1.00453 0.63311,-1.17792 0.0287,-0.34517 0.10539,-0.78311 0.22362,-0.99069 0.0865,-0.396 0.12353,-0.21336 0.4774,-0.068 0.2929,-0.23275 0.60747,0.0981 0.37292,0.14211 c 0,0 0.41766,-0.12478 0.41697,-0.14564 l 0.14382,-0.32977 0.28944,-0.34876 1.37698,0.0903 1.62125,0.44273 0.9227,0.32785 0.005,0.54854 0.33111,0.613 0.60178,0.5746 0.45761,0.25291 0.30565,0.37954 0.85206,0.60151 1.61185,0.39256 0.62843,0.16 1.40242,0.0113 1.17312,-0.35807 1.17312,-0.50581 0.68138,-0.65095 0.24263,-0.49425 0.84545,0.15421 0.42905,0.10026 -1.36772,-0.30744 0.59063,-0.58063 0.23247,-0.50899 -0.0447,-0.45313 -0.0357,-0.24717 1.74307,-0.14225 2.77499,0.0117 2.55192,-0.35502 0.20595,0.56638 0.22789,0.77697 0.1427,0.90875 1.21698,1.92932 0.17354,0.85777 2.44678,5.25891 0.33828,0.64691 c 0.96406,2.12581 1.88219,3.85058 2.32194,6.25061 l 0.36918,2.98825 -0.63964,3.38697 -0.86554,1.95676 -0.50319,1.22786 c -0.30414,0.61031 -0.62556,1.28319 -0.80596,1.94853 v 2.5e-4 l -1.38665,1.57596 -1.88585,1.43319 -0.70972,0.36077 -1.34315,-0.19033 -1.02079,0.74093 0.22134,0.36737 -1.74491,0.69405 -7.80598,-0.033 -3.31093,0.003 -4.30588,-0.0929 -0.97259,-0.048 -0.58052,0.002 -0.15452,-0.20591 0.18573,-1.17298 -1.43153,-0.3569 -0.50029,0.12663 -0.54851,-0.32985 -0.32913,-0.53652 -1.1995,-1.1592 -2.025,-1.89026 -1.49917,-2.21221 c 0,0 -0.82469,-2.27798 -1.08043,-2.95842 l -0.0554,-5.03292 0.88241,-2.88678 c 0.57253,-1.21213 1.27716,-2.72391 1.44993,-3.09489 l 0.92849,-1.99955 0.36278,-1.34784 z" 
        />
        <!-- <g id="dumbo_ears" transform="matrix(1.0945787,0,0,1.1214203,-239.94568,-51.120782)" style="display:inline">
            <g id="dumbo_ears_color">
                <path
                    d="m 352.31305,170.38418 -2.03393,0.0874 -2.38543,-0.74181 -1.70176,-1.16198 -0.84095,-2.06368 -0.29393,-1.43561 v -1.76065 l 0.30961,-0.89937 0.30963,-0.89939 0.65175,-0.99243 0.65176,-0.99244 0.85579,-0.52893 0.8558,-0.5289 h 0.97149 0.9715 l 1.02957,0.52523 1.02954,0.52524 0.54025,1.25891 0.28686,1.17442 0.75419,0.64649 0.66973,1.06884 1.40152,-0.33742 z"
                    style="fill:#575757;fill-opacity:1;stroke-width:1"
                    id="path71"
                />
                <path
                    d="m 370.3355,164.65066 0.32641,-1.12276 0.78257,-0.88715 0.61364,-1.73182 0.95124,-1.69326 1.03571,-0.72187 h 1.5736 1.57359 l 1.11138,1.22756 1.11137,1.22755 0.44651,1.38253 0.18066,1.00322 v 1.19569 1.19569 l -0.25659,0.67504 -1.26944,2.24975 -1.17126,0.95036 -2.18712,0.68275 -2.30107,-0.22577 -0.87889,-2.77225 z"
                    style="fill:#575757;fill-opacity:1;stroke-width:1"
                    id="path72"
                />
            </g>
            <path
                style="fill:#aa807c;fill-opacity:1"
                d="m 374.37243,169.57062 -0.79375,-0.15162 -0.24785,-0.2332 -0.24785,-0.23321 0.39949,-0.4112 0.16923,-0.48794 -0.56285,-0.0622 0.28143,-0.57389 0.30983,-0.58844 h -0.56002 l 0.14045,-0.46302 0.14045,-0.46302 -0.40046,-0.0567 -0.45164,-0.18461 0.4743,-0.57466 -0.34441,-0.16531 0.39719,-0.47394 h -0.22481 -0.22481 l 0.13688,-1.1639 0.13689,-1.16389 0.43613,-1.09002 0.43614,-1.09002 0.66643,-0.52421 0.66643,-0.52421 h 0.92527 0.92526 l 0.88837,0.94194 0.88837,0.94195 0.4301,1.47949 0.4301,1.47948 -0.15781,1.15129 -0.1578,1.15129 -0.50596,0.99134 -0.50595,0.99134 -0.53981,0.48818 -0.53981,0.48818 -1.0097,0.36317 -1.0097,0.36316 z"
                id="path613" 
            />
            <path
                style="fill:#d1a098;fill-opacity:1"
                d="m 375.26236,168.46712 -0.4846,0.003 0.51676,-0.8599 0.51676,-0.85989 0.18153,-0.76829 0.18153,-0.76828 -0.29772,-0.71875 -0.29771,-0.71875 -0.65603,-0.2989 -0.65602,-0.29891 h -0.67732 -0.67732 l 0.13495,-0.35167 0.13495,-0.35168 1.12208,-1.50041 1.12207,-1.50041 h 0.5645 0.56449 l 0.59158,0.41436 0.59158,0.41436 0.55498,1.08784 0.55497,1.08785 0.13886,1.5313 0.13885,1.5313 -0.34646,0.83642 -0.34646,0.83642 -1.3431,0.62541 -1.3431,0.62541 z"
                id="path74" 
            />
            <path
                style="fill:#aa807c;fill-opacity:1"
                d="m 350.65402,169.61368 0.72026,0.0476 0.34233,-0.034 -0.22981,-0.40096 0.21988,-0.13336 -0.0277,-0.52463 0.29717,0.0685 -0.0755,-0.61302 0.23816,-0.52146 -0.30983,-0.58844 h 0.56002 l -0.14045,-0.46302 -0.14045,-0.46302 0.40046,-0.0567 0.45164,-0.18461 -0.4743,-0.57466 0.34441,-0.16531 -0.39719,-0.47394 h 0.22481 0.22481 l -0.13688,-1.1639 -0.13689,-1.16389 -0.43613,-1.09002 -0.43614,-1.09002 -0.66643,-0.52421 -0.66643,-0.52421 h -0.92527 -0.92526 l -0.88837,0.94194 -0.88837,0.94195 -0.4301,1.47949 -0.4301,1.47948 0.15781,1.15129 0.1578,1.15129 0.50596,0.99134 0.50595,0.99134 0.53981,0.48818 0.53981,0.48818 1.19009,0.35935 z"
                id="path75" 
            />
            <path
                style="fill:#d1a098;fill-opacity:1"
                d="m 350.87442,168.52045 -0.0766,0.0707 -1.65147,-0.51018 -1.65147,-0.51018 -0.44178,-0.85097 -0.44178,-0.85096 -10e-4,-1.4881 -10e-4,-1.48811 0.63941,-1.27627 0.6394,-1.27627 0.69581,-0.50469 0.69581,-0.5047 0.49482,0.17382 0.49481,0.17381 1.12448,1.42617 1.12448,1.42617 v 0.28002 0.28002 h -0.63982 -0.63981 l -0.4283,0.16436 -0.4283,0.16435 -0.38709,0.74855 -0.38709,0.74855 v 0.5029 0.50289 l 0.6719,1.26369 0.67191,1.26368 z"
                id="path76" 
            />
        </g> -->
        <!-- <g id="hairless_ears" transform="matrix(0.98993078,0,0,0.98993078,-201.14639,-34.452883)" style="display:inline">
            <path
                d="m 352.27508,170.7359 -1.57822,0.12444 -2.38543,-0.74181 -1.70176,-1.16198 -0.84095,-2.06368 -0.29393,-1.43561 v -1.76065 l 0.30961,-0.89937 0.30963,-0.89939 0.65175,-0.99243 0.65176,-0.99244 0.85579,-0.52893 0.8558,-0.5289 h 0.97149 0.9715 l 1.02957,0.52523 1.02954,0.52524 0.54025,1.25891 0.28686,1.17442 0.75419,0.64649 0.66973,1.06884 1.40152,-0.33742 z"
                style="fill:#aa807c;fill-opacity:1;stroke-width:1"
                id="path703" 
            />
            <path
                d="m 368.47118,164.94349 0.32641,-1.12276 0.78257,-0.88715 0.61364,-1.73182 0.95124,-1.69326 1.03571,-0.72187 h 1.5736 1.57359 l 1.11138,1.22756 1.11137,1.22755 0.44651,1.38253 0.11609,1.33907 -0.25073,2.55874 -1.04562,2.37906 -1.28314,1.07419 -2.28419,0.87486 -1.82399,-0.48933 -1.31213,-2.78211 z"
                style="fill:#aa807c;fill-opacity:1;stroke-width:1"
                id="path704"
            />
            <path
                style="fill:#bc8d89;fill-opacity:1"
                d="m 372.50811,169.86345 -0.68408,-0.6993 -0.1656,-1.13686 -0.4946,-1.13688 -0.068,-0.99078 -0.28136,-0.6852 0.008,-0.22749 -0.0603,-0.24645 0.13688,-1.1639 0.13689,-1.16389 0.43613,-1.09002 0.43614,-1.09002 0.66643,-0.52421 0.66643,-0.52421 h 0.92527 0.92526 l 0.88837,0.94194 0.88837,0.94195 0.4301,1.47949 0.4301,1.47948 -0.15781,1.15129 -0.1578,1.15129 -0.50596,0.99134 -0.50595,0.99134 -0.53981,0.48818 -0.53981,0.48818 -1.0097,0.36317 -1.0097,0.36316 z"
                id="path705" 
            />
            <path
                style="fill:#d1a098;fill-opacity:1"
                d="m 373.39804,168.75995 -0.4846,0.003 0.51676,-0.8599 0.51676,-0.85989 0.18153,-0.76829 0.18153,-0.76828 -0.29772,-0.71875 -0.29771,-0.71875 -0.65603,-0.2989 -0.65602,-0.29891 h -0.67732 -0.67732 l 0.13495,-0.35167 0.13495,-0.35168 1.12208,-1.50041 1.12207,-1.50041 h 0.5645 0.56449 l 0.59158,0.41436 0.59158,0.41436 0.55498,1.08784 0.55497,1.08785 0.13886,1.5313 0.13885,1.5313 -0.34646,0.83642 -0.34646,0.83642 -1.3431,0.62541 -1.3431,0.62541 z"
                id="path706" 
            />
            <path
                style="fill:#bc8d89;fill-opacity:1"
                d="m 351.07176,170.00242 0.72026,0.0476 0.16785,-0.36318 0.0516,-0.61196 0.13884,-0.641 0.23578,-1.03795 0.51688,-0.99923 0.34508,-1.00137 0.0524,-0.47394 -0.13688,-1.1639 -0.13689,-1.16389 -0.43613,-1.09002 -0.43614,-1.09002 -0.66643,-0.52421 -0.66643,-0.52421 h -0.92527 -0.92526 l -0.88837,0.94194 -0.88837,0.94195 -0.4301,1.47949 -0.4301,1.47948 0.15781,1.15129 0.1578,1.15129 0.50596,0.99134 0.50595,0.99134 0.53981,0.48818 0.53981,0.48818 1.19009,0.35935 z"
                id="path707" 
            />
            <path
                style="fill:#d1a098;fill-opacity:1"
                d="m 351.29216,168.90919 -0.0766,0.0707 -1.65147,-0.51018 -1.65147,-0.51018 -0.44178,-0.85097 -0.44178,-0.85096 -0.001,-1.4881 -10e-4,-1.48811 0.63941,-1.27627 0.6394,-1.27627 0.69581,-0.50469 0.69581,-0.5047 0.49482,0.17382 0.49481,0.17381 1.12448,1.42617 1.12448,1.42617 v 0.28002 0.28002 h -0.63982 -0.63981 l -0.4283,0.16436 -0.4283,0.16435 -0.38709,0.74855 -0.38709,0.74855 v 0.5029 0.50289 l 0.6719,1.26369 0.67191,1.26368 z"
                id="path708" 
            />
        </g> -->
        <g id="ears" transform="matrix(0.92340623,0,0,0.92340623,-178.65237,-23.184865)" style="display:inline">
            <g id="ears_color">
                <path
                    d="m 352.27508,170.7359 -1.57822,0.12444 -2.38543,-0.74181 -1.70176,-1.16198 -0.84095,-2.06368 -0.29393,-1.43561 v -1.76065 l 0.30961,-0.89937 0.30963,-0.89939 0.65175,-0.99243 0.65176,-0.99244 0.85579,-0.52893 0.8558,-0.5289 h 0.97149 0.9715 l 1.02957,0.52523 1.02954,0.52524 0.54025,1.25891 0.28686,1.17442 0.75419,0.64649 0.66973,1.06884 1.40152,-0.33742 z"
                    style="fill:#575757;fill-opacity:1;stroke-width:1"
                    id="path614" 
                />
                <path
                    d="m 371.05768,164.94349 0.32641,-1.12276 0.78257,-0.88715 0.61364,-1.73182 0.95124,-1.69326 1.03571,-0.72187 h 1.5736 1.57359 l 1.11138,1.22756 1.11137,1.22755 0.44651,1.38253 0.11609,1.33907 -0.25073,2.55874 -1.04562,2.37906 -1.28314,1.07419 -2.28419,0.87486 -1.82399,-0.48933 -1.31213,-2.78211 z"
                    style="fill:#575757;fill-opacity:1;stroke-width:1"
                    id="path615" 
                />
            </g>
            <path
                style="fill:#bc8d89;fill-opacity:1"
                d="m 375.09461,169.86345 -0.79375,-0.15162 -0.24785,-0.2332 -0.24785,-0.23321 0.39949,-0.4112 0.16923,-0.48794 -0.56285,-0.0622 0.28143,-0.57389 0.30983,-0.58844 h -0.56002 l 0.14045,-0.46302 0.14045,-0.46302 -0.40046,-0.0567 -0.45164,-0.18461 0.4743,-0.57466 -0.34441,-0.16531 0.39719,-0.47394 h -0.22481 -0.22481 l 0.13688,-1.1639 0.13689,-1.16389 0.43613,-1.09002 0.43614,-1.09002 0.66643,-0.52421 0.66643,-0.52421 h 0.92527 0.92526 l 0.88837,0.94194 0.88837,0.94195 0.4301,1.47949 0.4301,1.47948 -0.15781,1.15129 -0.1578,1.15129 -0.50596,0.99134 -0.50595,0.99134 -0.53981,0.48818 -0.53981,0.48818 -1.0097,0.36317 -1.0097,0.36316 z"
                id="path616" 
            />
            <path
                style="fill:#d1a098;fill-opacity:1"
                d="m 375.98454,168.75995 -0.4846,0.003 0.51676,-0.8599 0.51676,-0.85989 0.18153,-0.76829 0.18153,-0.76828 -0.29772,-0.71875 -0.29771,-0.71875 -0.65603,-0.2989 -0.65602,-0.29891 h -0.67732 -0.67732 l 0.13495,-0.35167 0.13495,-0.35168 1.12208,-1.50041 1.12207,-1.50041 h 0.5645 0.56449 l 0.59158,0.41436 0.59158,0.41436 0.55498,1.08784 0.55497,1.08785 0.13886,1.5313 0.13885,1.5313 -0.34646,0.83642 -0.34646,0.83642 -1.3431,0.62541 -1.3431,0.62541 z"
                id="path617" 
            />
            <path
                style="fill:#bc8d89;fill-opacity:1"
                d="m 351.07176,170.00242 0.72026,0.0476 0.34233,-0.034 -0.22981,-0.40096 0.21988,-0.13336 -0.0277,-0.52463 0.29717,0.0685 -0.0755,-0.61302 0.23816,-0.52146 -0.30983,-0.58844 h 0.56002 l -0.14045,-0.46302 -0.14045,-0.46302 0.40046,-0.0567 0.45164,-0.18461 -0.4743,-0.57466 0.34441,-0.16531 -0.39719,-0.47394 h 0.22481 0.22481 l -0.13688,-1.1639 -0.13689,-1.16389 -0.43613,-1.09002 -0.43614,-1.09002 -0.66643,-0.52421 -0.66643,-0.52421 h -0.92527 -0.92526 l -0.88837,0.94194 -0.88837,0.94195 -0.4301,1.47949 -0.4301,1.47948 0.15781,1.15129 0.1578,1.15129 0.50596,0.99134 0.50595,0.99134 0.53981,0.48818 0.53981,0.48818 1.19009,0.35935 z"
                id="path618"
            />
            <path
                style="fill:#d1a098;fill-opacity:1"
                d="m 351.29216,168.90919 -0.0766,0.0707 -1.65147,-0.51018 -1.65147,-0.51018 -0.44178,-0.85097 -0.44178,-0.85096 -0.001,-1.4881 -10e-4,-1.48811 0.63941,-1.27627 0.6394,-1.27627 0.69581,-0.50469 0.69581,-0.5047 0.49482,0.17382 0.49481,0.17381 1.12448,1.42617 1.12448,1.42617 v 0.28002 0.28002 h -0.63982 -0.63981 l -0.4283,0.16436 -0.4283,0.16435 -0.38709,0.74855 -0.38709,0.74855 v 0.5029 0.50289 l 0.6719,1.26369 0.67191,1.26368 z"
                id="path619"
            />
        </g>
        <g id="eyes" transform="matrix(0.9899308,0,0,0.9899308,-200.15541,-34.804261)">
            <g id="eye_color">
                <path
                    style="fill:#000000;stroke-width:1.00052"
                    d="m 355.7493,169.14168 c -0.34846,-0.19222 -0.82927,-0.19803 -1.22022,-0.092 -0.38535,0.10455 -0.72678,0.36097 -1.01684,0.61314 -0.28891,0.25117 -0.51309,0.57432 -0.7118,0.88908 -0.17185,0.27223 -0.28516,0.57937 -0.33896,0.88906 -0.0859,0.49477 -0.11237,1.01918 0.034,1.50223 0.0789,0.26038 0.17476,0.58238 0.44063,0.70511 0.31394,0.14494 0.71584,-0.008 1.05076,-0.10734 0.82956,-0.24615 1.76895,-0.53423 2.27096,-1.18031 0.29693,-0.38214 0.2822,-0.91261 0.27116,-1.37959 -0.008,-0.37677 -0.11321,-0.75491 -0.27116,-1.10366 -0.12112,-0.26767 -0.23546,-0.58519 -0.50848,-0.7358 z"
                    id="path77"
                    transform="translate(1.0194695,0.18535809)" 
                />
                <path
                    style="fill:#000000;stroke-width:1.00052"
                    d="m 364.96122,169.14236 c 0.39877,0.0202 0.72678,0.36097 1.01684,0.61314 0.28891,0.25117 0.51309,0.57432 0.7118,0.88908 0.17185,0.27223 0.28516,0.57937 0.33896,0.88906 0.0859,0.49477 0.11237,1.01918 -0.034,1.50223 -0.0789,0.26038 -0.17476,0.58238 -0.44063,0.70511 -0.31394,0.14494 -0.71584,-0.008 -1.05076,-0.10734 -0.82956,-0.24615 -1.76895,-0.53423 -2.27096,-1.18031 -0.29693,-0.38214 -0.2822,-0.91261 -0.27116,-1.37959 0.008,-0.37677 0.23839,-1.07089 0.23839,-1.07089 0.44488,-0.67707 0.55512,-0.92171 1.76152,-0.86049 z"
                    id="path79"
                    transform="translate(1.0194695,0.18535809)" 
                />
            </g>
            <path
                style="fill:#ffffff;stroke-width:0.943788"
                d="m 364.31758,169.95458 c -0.12866,-0.1585 -0.42478,0.0453 -0.58442,0.2317 -0.211,0.24644 -0.48911,0.75714 -0.33517,0.98721 0.1502,0.22438 0.56219,-0.0659 0.75006,-0.33061 0.16798,-0.23679 0.31796,-0.70555 0.16954,-0.8883 z"
                id="path80"
                transform="translate(1.0194695,0.18535809)"
            />
            <path
                style="fill:#ffffff;stroke-width:0.943788"
                d="m 354.05502,170.14227 c -0.12866,-0.1585 -0.42478,0.0453 -0.58442,0.2317 -0.211,0.24644 -0.48911,0.75714 -0.33517,0.98721 0.1502,0.22438 0.56219,-0.0659 0.75006,-0.33061 0.16798,-0.23679 0.31796,-0.70555 0.16954,-0.8883 z"
                id="path78"
                transform="translate(1.0194737,0.18535903)"
            />
        </g>
        <g id="feet" transform="matrix(0.9899308,0,0,0.9899308,-279.82807,-34.219219)">
            <path
                style="fill:#d1a098;fill-opacity:1"
                d="m 454.18514,212.82119 h -0.12212 l -0.47278,-0.52241 -0.47278,-0.52241 -0.49455,-0.15697 -0.49455,-0.15696 -0.29781,-0.55645 -0.2978,-0.55645 0.49652,-0.37267 0.49652,-0.37266 1.19063,0.14116 1.19062,0.14117 1.31202,0.27903 1.31202,0.27903 0.2712,0.2712 0.27119,0.2712 0.0395,0.7848 0.0395,0.78481 h -0.19261 -0.19262 l -0.47889,-0.52917 -0.47889,-0.52917 h -0.22357 -0.22358 v 0.66146 0.66146 h -0.11194 -0.11194 l -0.81117,-0.81117 -0.81118,-0.81118 -0.23202,0.1434 -0.23203,0.14341 0.12765,0.66777 0.12765,0.66777 z"
                id="path81"
            />
            <path
                style="fill:#d1a098;fill-opacity:1"
                d="m 426.8801,212.17954 -0.77691,0.7276 0.13043,-0.7276 0.13043,-0.72761 h -0.28669 -0.28668 l 0.52243,-0.52243 0.52243,-0.52243 2.27414,-0.44242 2.27413,-0.44242 0.71899,0.18045 0.71899,0.18046 -0.0833,0.55894 -0.0833,0.55894 -0.52917,0.281 -0.52917,0.281 -0.76526,0.50939 -0.76526,0.50939 0.17499,-0.69723 0.17499,-0.69722 h -0.35241 -0.35242 l -0.75145,0.78434 -0.75144,0.78435 -0.23486,-0.14515 -0.23486,-0.14515 0.16088,-0.5069 0.16089,-0.50691 h -0.20179 -0.20179 z"
                id="path82" 
            />
        </g>
        <g id="hands" transform="matrix(0.9899308,0,0,0.9899308,-200.35004,-34.220394)">
            <path
                style="fill:#d1a098;fill-opacity:1"
                d="m 364.37579,198.51151 -0.35026,0.29069 -0.3112,-0.31121 -0.31121,-0.3112 v 0.20411 0.2041 l -0.39687,-0.39687 -0.39688,-0.39688 9.9e-4,-0.34963 9.9e-4,-0.34962 0.50992,-0.83628 0.50993,-0.83627 0.57692,-0.18311 0.57693,-0.18311 0.39117,0.39118 0.39118,0.39118 -0.42068,0.8135 -0.42068,0.8135 v 0.37762 0.37762 z"
                id="path87"
            />
            <path
                style="fill:#d1a098;fill-opacity:1"
                d="m 439.86903,197.61108 -0.67249,0.12855 -0.25093,-0.69456 -0.25094,-0.69457 -0.28522,-0.56054 -0.28521,-0.56053 0.0953,-0.49476 0.0953,-0.49476 0.48358,-0.0931 0.48359,-0.0931 0.61658,0.57925 0.61658,0.57924 0.31806,0.76786 0.2547,0.91567 -0.62162,0.36734 -0.17816,-0.28729 z"
                id="path88"
                transform="translate(-80.483059,0.59099257)" 
            />
        </g>
        <g id="mouth" transform="translate(55.522526,4.2894355)">
            <path
            d="m 101.87992,139.96302 0.99426,0.20378 0.90387,-0.0645 1.15218,-0.51973 0.76332,-0.40676 -0.35441,0.73914 -0.69245,0.64849 -1.26184,0.56794 -1.1646,0.30202 -1.29805,-0.006 -2.25433,-0.56768 -0.842638,-0.60459 -0.365265,-0.58333 1.025362,0.42207 1.821261,2.3e-4 0.67237,-0.37576 0.2241,-0.1449 z"
            style="fill:#131313;fill-opacity:0.665529;stroke-width:0.989932"
            id="path89" 
            />
            <g id="mouth_color">
                <path
                    style="display:inline;fill:#b4b4b4;fill-opacity:1;stroke-width:0.989932"
                    d="m 100.62491,141.24753 0.38542,0.0489 0.48432,-0.006 0.41507,-0.0119 0.56863,-0.19374 0.16543,-0.26831 -0.1967,-0.13897 -0.24328,-0.1131 -0.38812,-0.13898 -0.26093,-0.18196 -0.2555,-0.15977 -0.24319,0.13066 -0.53807,0.23929 -0.39014,0.10907 -0.371849,0.15558 0.311059,0.34699 z"
                    id="path93" 
                />
                <path
                    style="display:inline;fill:#b4b4b4;fill-opacity:1;stroke-width:0.989932"
                    d="m 99.491162,140.34158 0.896088,0.0166 0.44143,-0.3995 0.44143,-0.39949 0.33155,0.39949 0.33154,0.3995 h 0.8676 0.86759 l 0.63711,-0.24224 0.63711,-0.24223 0.70215,-0.65074 0.4304,-0.44168 0.24111,-0.51063 -0.0516,-0.63607 -0.23543,-0.45848 -0.83901,-0.22093 -0.93885,0.28839 -0.79206,0.26237 -0.56871,1.01316 -2.26001,-0.0592 -1.125429,-0.94412 -0.96643,-0.28906 -0.999453,-0.0531 -0.971023,0.39781 -0.441882,0.2267 0.0105,0.6401 0.328573,0.56579 0.499063,0.5482 0.58268,0.33916 0.523842,0.21667 0.523843,0.21668 z"
                    id="path90" 
                />
            </g>
            <path
                d="m 101.17229,139.6486 -0.0183,-0.23208 v -0.49176 l -0.38508,-0.0293 -0.35581,-0.0439 -0.39152,-0.19292 -0.354954,-0.44168 0.530154,0.23058 0.55941,0.20863 0.21212,-0.22676 0.27798,-0.27798 0.29488,0.24473 0.29487,0.24472 0.58656,-0.15339 0.94132,-0.16817 -0.35805,0.34947 -0.67227,0.18543 -0.40846,0.0705 h -0.50924 v 0.62678 l 0.058,0.23307 z"
                style="fill:#131313;fill-opacity:0.832765;stroke-width:0.989932"
                id="path94"
            />
        </g>
        <!-- <g id="satin_shine" transform="matrix(0.95475964,0,0,0.95361029,125.75469,122.6136)" style="display:inline">
            <path
                style="fill:#b5b5b5;fill-opacity:0.498039"
                d="m 21.584009,34.865431 c -0.04584,0 -0.37858,-0.50602 -0.739429,-1.12448 -0.360849,-0.61847 -0.798797,-1.90444 -0.973219,-2.85772 l -0.31713,-1.73324 0.190971,-2.03794 0.190971,-2.03794 0.565382,-0.39601 c 0.310961,-0.21781 0.657954,-0.39601 0.771095,-0.39601 0.113142,0 0.205712,0.22962 0.205712,0.51027 0,0.28064 -0.178594,0.68886 -0.396875,0.90714 -0.218281,0.21828 -0.396875,0.79745 -0.396875,1.28705 v 0.89018 l 1.669154,-1.62862 c 0.918035,-0.89574 0.925818,-0.894827 1.281091,-1.075517 0.355272,-0.18069 0.05204,0.231545 -0.700463,0.902765 -0.752499,0.67123 -0.78205,0.908382 -1.302858,1.617872 -0.520808,0.70948 -0.946924,1.48238 -0.946924,1.71754 0,0.23517 0.09957,0.42757 0.221273,0.42757 0.121701,0 0.210998,0.50602 0.198438,1.12448 l -0.02284,1.12448 0.292932,-0.0536 0.292931,-0.0536 v 1.44261 c 0,0.79344 -0.0375,1.44261 -0.08334,1.44261 z"
                id="path238" 
            />
            <path
                style="fill:#b5b5b5;fill-opacity:0.498039"
                d="m 16.688232,45.644451 c -0.07825,0.0783 -0.27366,-0.20165 -0.434236,-0.62202 -0.160577,-0.42036 -0.413029,-1.41621 -0.561005,-2.213 -0.147976,-0.79679 -0.187318,-2.21189 -0.08743,-3.14466 0.09989,-0.93277 0.349073,-2.25982 0.553736,-2.949 0.204663,-0.68917 0.845029,-2.25064 1.423034,-3.46992 0.578005,-1.21929 1.054195,-2.00852 1.0582,-1.75386 0.004,0.25466 0.110356,0.46302 0.236337,0.46302 0.125981,0 0.141968,0.47625 0.03553,1.05833 -0.106441,0.58209 -0.131532,1.05834 -0.05576,1.05834 0.07578,0 -0.06655,0.22577 -0.316284,0.50172 l -0.454056,0.50173 0.346903,0.1167 0.346903,0.11671 -0.291124,0.37376 c -0.160118,0.20556 -0.42958,1.08813 -0.598804,1.96125 -0.169224,0.87313 -0.335875,2.36141 -0.370334,3.30729 l -0.06265,1.71979 -0.444592,-1.32291 c -0.244526,-0.72761 -0.457146,-1.26339 -0.472489,-1.19063 -0.01534,0.0728 -0.07238,0.84667 -0.126758,1.71979 -0.05437,0.87313 0.01724,2.04601 0.159149,2.6064 0.141906,0.56039 0.193985,1.08292 0.115732,1.16117 z"
                id="path234" 
            />
            <path
                style="fill:#c8c8c8;fill-opacity:0.496802"
                d="m 31.388031,49.299101 c -0.10914,-0.005 -0.77923,-0.29278 -1.48909,-0.64051 -0.70987,-0.34773 -1.480097,-0.882005 -1.751547,-1.293705 -0.27144,-0.41171 -0.527933,-0.633605 -0.527933,-0.633605 l 0.275433,0.846183 0.34644,0.963476 -0.712828,-0.272641 -0.605674,-0.526649 -0.613455,-0.663169 -0.485086,-0.9897 -0.12065,0.35253 -0.12065,0.35253 -0.81056,-0.86203 c -0.44581,-0.47412 -1.00002,-1.41807 -1.23158,-2.09766 -0.23156,-0.67959 -0.42102,-1.81675 -0.42102,-2.52702 0,-0.71027 -0.2091,-1.162159 -0.2091,-1.162159 L 22.68155,39.268559 c -0.111536,-0.426522 0.08881,-0.787965 0.08881,-0.787965 l 1.185079,0.829248 c 0.7356,0.6237 1.71173,1.547579 2.16917,2.053059 0.45745,0.50549 1.24194,1.30916 1.74332,1.78594 0.50138,0.47678 1.02197,0.86687 1.15688,0.86687 0.1349,0 0.0947,-0.18147 -0.0894,-0.40327 -0.18408,-0.2218 -0.27562,-0.46233 -0.20343,-0.53452 0.0722,-0.0722 0.8333,0.42128 1.69135,1.09661 0.85805,0.67532 2.05794,1.4536 2.66642,1.7295 0.60848,0.2759 1.70981,0.51523 2.4474,0.53185 0.73758,0.0166 1.34106,0.10956 1.34106,0.20654 0,0.097 -0.49113,0.64696 -1.09141,1.2222 -0.60027,0.57524 -1.1401,0.91468 -1.19962,0.75431 l -0.10821,-0.29157 -1.02306,0.27308 -1.02306,0.27307 -0.71069,-0.46567 c -0.39088,-0.25611 -0.76556,-0.41079 -0.83263,-0.34373 -0.0671,0.0671 0.0623,0.3062 0.28754,0.53141 0.22521,0.22521 0.40947,0.47751 0.40947,0.56067 0,0.0831 -0.0893,0.14746 -0.19843,0.14291 z"
                id="path220" 
            />
            <path
                style="fill:#b5b5b5;fill-opacity:0.498039;stroke-width:0.944841"
                d="m 30.372487,4.777959 c 3.6e-5,-0.098822 -0.336095,-0.045458 -0.746885,0.1185396 -0.410785,0.1639881 -1.293468,0.6332596 -1.961518,1.0428238 -0.66805,0.4095651 -1.696496,1.2780147 -2.285433,1.9298827 -0.588935,0.651867 -1.351102,1.6468671 -1.693707,2.2111069 -0.342598,0.564233 -0.993917,1.954146 -1.447367,3.088685 -0.453457,1.134545 -0.793064,2.777891 -0.61016,2.619665 0.09416,-0.08146 1.058476,-1.817471 1.120178,-1.897206 0.336334,-0.434636 0.477971,0.410143 0.53155,0.457974 0.177592,-0.29366 0.588199,-1.657519 0.608286,-2.017039 l 0.447999,-0.97363 0.549506,-1.325725 1.502662,-1.8846739 c 0,0 0.547505,-0.5801511 1.126443,-1.1656357 C 28.092992,6.3972401 28.972979,5.702062 29.46958,5.437895 29.966178,5.1737262 30.372488,4.8767533 30.372486,4.7779608 Z"
                id="path243" 
            />
        </g> -->
        <g id="nose" transform="translate(55.522526,4.2894355)">
            <path
                style="fill:#bc8d89;fill-opacity:1;stroke-width:0.989932"
                d="m 101.5622,138.7145 -0.78576,-0.013 -0.55288,-0.22341 -0.552889,-0.2234 -0.159175,-0.41479 -0.159171,-0.4148 0.158459,-0.41294 0.158459,-0.41294 0.636137,-0.24186 0.63613,-0.24186 0.83418,0.008 0.83419,0.008 0.45835,0.34795 0.45836,0.34794 v 0.79182 l -0.16218,0.66206 -0.42713,0.28769 -0.58932,0.15792 z"
                id="path95" 
            />
            <path
                style="fill:#d1a098;fill-opacity:1;stroke-width:0.795862"
                d="m 101.50305,138.35982 -0.61478,-0.0107 -0.43259,-0.18455 -0.43259,-0.18455 -0.124544,-0.34265 -0.124538,-0.34266 0.123978,-0.34113 0.123984,-0.34112 0.49772,-0.1998 0.49772,-0.1998 0.65268,0.007 0.65269,0.007 0.35863,0.28744 0.35862,0.28743 v 0.65411 0.65411 l -0.46109,0.13047 -0.46109,0.13045 z"
                id="path96" 
            />
            <path
                style="fill:#000000"
                d="m 32.691963,21.319767 c 0,-0.12995 0.17253,-0.30248 0.3834,-0.3834 0.25626,-0.0983 0.33461,-0.02 0.23628,0.23628 -0.16059,0.41849 -0.61968,0.52749 -0.61968,0.14712 z"
                id="path97"
                transform="translate(69.49377,116.69522)" 
            />
            <path
                style="fill:#000000"
                d="m 30.591314,21.059033 c -0.13935,-0.36314 -0.10064,-0.37951 0.23627,-0.0999 0.45912,0.38103 0.5069,0.53419 0.16666,0.53419 -0.12995,0 -0.31127,-0.19543 -0.40293,-0.4343 z"
                id="path98"
                transform="translate(69.49377,116.69522)" 
            />
        </g>
        <g id="whiskers_left" transform="matrix(0.98993079,0,0,0.98993079,-296.55661,125.18527)">
            <path
                style="fill:#131313"
                d="m 448.28132,15.877033 0.28496,0.07183 0.2528,0.03967 3.12811,0.7285 3.12811,0.728501 -0.132,0.131994 -0.13199,0.131994 -2.20237,-0.530094 -2.20236,-0.530094 -0.87632,-0.180536 -0.89239,-0.0117 -0.4814,-0.05331 -0.82683,-0.165365 -0.82682,-0.165364 -3.34036,0.002 -3.34037,0.002 -1.68665,0.273678 -1.68665,0.273678 -0.11656,-0.116565 -0.11657,-0.116565 1.80322,-0.298206 1.80321,-0.298205 2.51354,-0.05934 2.51355,-0.05934 1.57189,0.116713 1.5719,0.116713 z"
                id="path101"
            />
            <path
                d="m 448.86598,18.544135 -0.57988,-0.03404 -0.46049,-0.0056 -1.95143,0.49991 -1.95143,0.49991 -1.95117,0.830237 -1.95118,0.830237 -1.45521,0.901143 -1.4552,0.901143 0.79375,-0.684291 0.79375,-0.68429 2.38125,-1.164195 2.38125,-1.164194 2.3151,-0.57461 2.3151,-0.574611 0.44945,-0.06409 0.47784,-0.06468 2.90411,-0.05122 2.90411,-0.05122 -0.19934,0.19934 -0.19934,0.199339 -1.11727,-0.06776 -1.11727,-0.06775 -1.49943,0.172177 -1.49942,0.172177 z"
                style="fill:#131313"
                id="path102"
            />
            <path
                d="m 448.2247,20.637395 1.13183,-0.622573 1.06362,-0.622574 1.34074,-0.47474 1.22704,-0.372409 1.41879,-0.146528 1.41879,-0.146528 -0.66146,0.233165 -0.66145,0.233165 -1.78594,0.460197 -1.78594,0.460197 -0.43138,-0.08817 -1.0963,0.600118 -1.0963,0.600118 -0.34393,0.244317 -0.40382,0.152758 h -0.0982 l -1.5819,1.074252 -1.58191,1.074253 -0.98326,0.804772 -0.98327,0.804773 1.43116,-1.320543 1.43115,-1.320544 1.27558,-0.756919 1.27559,-0.756919 z"
                style="fill:#131313"
                id="path103"
            />
            <path
                d="m 453.73852,20.048483 -0.17624,0.241585 -0.25583,0.16768 -0.35447,0.257385 -0.45111,0.189166 -0.31268,0.25267 -0.35247,0.292464 -0.38529,0.208286 -0.24318,-0.218095 1.19599,-0.858895 1.19599,-0.858895 0.14673,-0.210051 0.11547,-0.201524 0.24224,-0.108697 0.18824,-0.07743 0.52917,-0.206506 0.52916,-0.206507 0.26459,-0.0092 0.26458,-0.0092 -0.61322,0.340244 -0.61321,0.340244 -0.71087,0.463623 z"
                style="fill:#131313"
                id="path104"
            />
            <path
                d="m 455.11611,20.025399 -0.37488,0.255935 -0.69325,0.631151 -0.50967,0.505757 -0.25953,0.795696 -0.17799,0.430245 -0.15525,-0.0871 0.37586,-1.103487 0.0632,-0.171133 1.42391,-1.335842 0.28689,-0.164715 0.30064,-0.175385 0.43459,-0.357441 0.46303,-0.363126 -0.37415,0.4763 -0.37415,0.4763 z"
                style="fill:#131313"
                id="path105" 
            />
        </g>
        <g id="whiskers_right" transform="translate(55.404272,2.5156243)">
            <path
                d="m 477.66291,21.442629 0.62824,0.609067 -0.33073,-0.186818 -0.45133,-0.251137 -0.45049,-0.171726 -1.19573,-0.700749 -1.19574,-0.700748 -2.23398,-0.770022 -2.23399,-0.770021 -1.36791,-0.06882 -1.51852,-0.100316 -0.59531,-0.159538 -0.59531,-0.159537 -2.64583,-0.03981 -2.64584,-0.03981 1.71979,-0.211563 1.7198,-0.211562 1.65364,0.152009 1.65365,0.15201 1.30771,0.253567 1.37433,0.113141 2.58076,0.587972 z"
                style="fill:#131313"
                id="path106"
                transform="matrix(0.98993079,0,0,0.98993079,-351.96089,122.66964)" 
            />
            <path
                d="m 117.60317,139.3007 -1.75619,-0.24315 -1.75618,-0.24314 -3.20592,0.13073 -3.20592,0.13073 -0.57093,0.0347 -0.77309,0.18196 -0.71634,0.17605 -0.34749,0.2203 -0.34749,0.2203 0.53526,-0.11098 0.40981,-0.13187 0.44047,-0.0447 0.42639,-0.0188 0.52713,-0.0941 0.86159,-0.0523 2.26699,-0.083 2.21942,-0.1143 2.20001,0.16765 1.75239,0.20335 1.56903,0.28662 0.59827,0.006 0.59828,0.006 2.22631,0.50885 2.22632,0.50884 0.6548,0.14558 0.6548,0.14558 -0.95461,-0.37491 -0.9546,-0.37491 -2.39897,-0.58125 -2.39897,-0.58124 -0.38135,-0.013 z"
                style="fill:#131313;stroke-width:0.989931"
                id="path107"
            />
            <path
                d="m 104.64075,142.22434 -0.71076,-0.38577 -0.71076,-0.38577 0.17472,-0.0105 0.17474,-0.0105 1.26553,0.54248 1.26554,0.54247 0.85938,0.65548 0.85939,0.65548 -0.53778,-0.24131 z m 5.44408,0.0802 0.94915,0.55046 1.09325,0.58524 0.93962,0.77545 0.70706,0.4375 0.70708,0.43749 1.17863,1.07904 1.17864,1.07903 -1.5622,-1.19343 -1.36561,-1.00718 -1.22607,-0.70683 -0.71568,-0.5537 -1.07643,-0.54915 -1.07642,-0.54915 -0.22744,-0.11504 -0.44636,-0.18084 -0.29116,-0.0929 -1.50603,-0.43267 -1.50603,-0.43268 -0.91673,-0.23997 -0.91672,-0.23997 0.73406,-0.0236 0.73405,-0.0236 1.85214,0.42126 1.85214,0.42126 0.24006,0.11978 0.41565,0.27344 z"
                style="fill:#131313;stroke-width:0.989931"
                id="path108"
            />
        </g>
        <!-- <g id="wrinkles" style="display:inline" transform="matrix(0.82063423,0,0,0.81964634,126.21363,122.73489)">
            <path
                style="fill:#000000;fill-opacity:0.145098"
                d="m 51.320248,46.356398 -0.61785,0.532246 v -0.115026 -0.115025 l 2.10069,-2.096501 2.10069,-2.096501 0.86499,-0.793771 0.86499,-0.793771 v 0.173187 0.173187 l -2.34783,2.299865 -2.34783,2.299865 z"
                id="path849" 
            />
            <path
                style="fill:#000000;fill-opacity:0.145098"
                d="m 20.657582,46.270155 -0.0562,0.05623 -0.41664,-0.495152 -0.41665,-0.495152 -0.0569,-0.132669 -0.057,-0.132669 -0.46112,-0.356535 -0.46112,-0.356535 -0.40387,-0.595141 -0.40388,-0.595142 v -0.08254 -0.08254 l 0.98558,0.797471 0.98558,0.79747 0.40924,0.808339 0.40923,0.80834 z"
                id="path838" 
            />
            <path
                style="fill:#000000;fill-opacity:0.145098"
                d="m 53.702932,45.366407 -0.476,0.335535 0.077,-0.23348 0.077,-0.233481 0.67282,-0.49428 0.67282,-0.494281 0.70026,-0.4119 0.70027,-0.411901 1.08538,-0.714341 1.08538,-0.714341 0.49428,-0.447575 0.49428,-0.447574 0.32952,-0.230741 0.32953,-0.23074 -0.65832,0.699625 -0.65832,0.699624 -1.48357,1.125344 -1.48356,1.125343 -0.74142,0.371814 -0.74142,0.371814 z"
                id="path835"
            />
            <path
                style="fill:#000000;fill-opacity:0.145098"
                d="m 49.193076,50.895648 -0.18564,0.05769 0.49428,-0.350503 0.49428,-0.350502 1.02975,-0.650962 1.02975,-0.650961 -0.005,0.119977 -0.005,0.119977 -1.33359,0.823801 -1.3336,0.823801 z"
                id="path818" 
            />
            <path
                style="fill:#000000;fill-opacity:0.145098"
                d="m 28.638087,34.644798 -0.784094,-0.466531 -0.105942,-0.203246 -0.105941,-0.203247 0.101617,-0.01902 0.101617,-0.01903 0.844475,0.59457 0.844476,0.594569 -0.05607,0.09423 -0.05607,0.09423 z"
                id="path796" 
            />
            <path
                style="fill:#000000;fill-opacity:0.145098"
                d="m 27.191636,52.543933 -0.32952,0.10674 -0.16476,-0.152786 -0.16476,-0.152786 -0.98856,-0.357025 -0.98856,-0.357026 -0.57667,-0.257951 -0.57666,-0.25795 -0.46925,-0.224609 -0.46926,-0.224608 -1.04506,-0.869555 -1.04506,-0.869554 -0.01,-0.148879 -0.01,-0.148879 -0.68645,-0.633732 -0.68646,-0.633732 h -0.11736 -0.11735 l -0.21003,-0.507043 -0.21002,-0.507044 -0.37011,-0.242505 -0.37011,-0.242505 -0.42842,-0.64738 -0.42841,-0.647381 V 44.45311 44.338478 l 0.37071,0.337651 0.37071,0.337651 0.369,0.190234 0.36901,0.190233 0.26037,0.503498 0.26037,0.503497 0.52394,0.546465 0.52395,0.546465 0.40052,0.531237 0.40052,0.531238 0.238132,0.311362 0.420023,0.344434 0.307366,0.235679 0.290829,0.351435 0.89397,0.593384 0.89397,0.593384 h 0.33102 0.33102 l 0.21772,0.210936 0.21772,0.210936 0.74142,0.212129 0.74142,0.212129 0.50598,0.153596 0.50597,0.153596 h 0.4414 0.44139 v 0.129454 0.129455 l -0.28833,0.01932 -0.28833,0.01932 z"
                id="path795"
            />
            <path
                style="fill:#000000;fill-opacity:0.145098"
                d="m 47.098299,58.8185 h -0.18244 l 0.50524,-0.535471 0.50524,-0.53547 0.30969,-0.386046 0.3097,-0.386045 0.91518,-0.710948 0.91518,-0.710949 0.89718,-0.50273 0.89718,-0.502731 1.15332,-0.55851 1.15332,-0.55851 1.58137,-0.78661 1.58137,-0.78661 1.38431,-1.034519 1.38432,-1.034519 0.0585,0.05615 0.0585,0.05615 -0.59943,0.526304 -0.59942,0.526305 -0.69477,0.506934 -0.69476,0.506935 -1.31809,0.727108 -1.31808,0.727109 -0.49428,0.259203 -0.49428,0.259203 -1.53397,0.956291 -1.53397,0.95629 h -0.12206 -0.12206 l -0.98013,0.65863 -0.98013,0.658629 -0.48579,0.371122 -0.48578,0.371122 -0.39386,0.45309 -0.39385,0.453091 z"
                id="path782"
            />
            <path
                style="fill:#000000;fill-opacity:0.145098"
                d="m 36.801567,61.569526 -0.24714,0.06797 -0.26594,-0.154058 -0.26593,-0.154059 -0.55787,-0.06924 -0.55786,-0.06924 -0.66413,-0.178879 -0.66413,-0.178878 -0.32443,-0.263961 -0.32443,-0.26396 0.32952,0.109186 0.32952,0.109185 0.98856,0.167656 0.98856,0.167656 1.56522,-0.114634 1.56522,-0.114635 0.62083,-0.04938 0.62083,-0.04938 0.36773,-0.238076 0.36773,-0.238075 0.49429,-0.124663 0.49428,-0.124662 0.74142,-0.05432 0.74142,-0.05432 1.2357,-0.443467 1.2357,-0.443467 0.71995,-0.482289 0.71996,-0.482288 0.0696,0.06964 0.0696,0.06964 -0.81602,0.586255 -0.81602,0.586255 -0.63262,0.319764 -0.63261,0.319764 -1.269,0.42359 -1.269,0.423591 -0.62574,0.113346 -0.62575,0.113346 -0.44078,0.222991 -0.44079,0.22299 -1.2892,0.09257 -1.28919,0.09257 z"
                id="path766"
            />
            <path
                style="fill:#000000;fill-opacity:0.145098"
                d="m 43.037416,58.981921 0.77296,-0.7561 0.772963,-0.756111 0.978358,-0.617378 0.978358,-0.617378 0.485997,-0.196568 0.485998,-0.196567 0.691921,-0.405147 0.69192,-0.405147 1.233379,-0.842805 1.233377,-0.842804 0.807738,-0.866929 0.807739,-0.866938 1.491094,-1.896839 1.491093,-1.89683 0.497337,-0.456071 0.497334,-0.456062 0.822402,-0.591524 0.822405,-0.591533 0.04361,-0.150177 0.04361,-0.150177 -0.36508,0.200901 -0.365083,0.20091 -0.561948,0.437298 -0.561947,0.437298 -1.322987,1.417275 -1.322985,1.417264 -0.977443,1.002909 -0.977443,1.002908 -0.417017,0.334298 -0.417019,0.334309 -0.04322,0.148831 -0.04322,0.148832 -0.399609,0.194487 -0.39961,0.194486 -0.05093,0.175377 -0.05092,0.175365 -0.763683,0.633774 -0.763685,0.633775 -1.578192,0.914251 -1.578189,0.914241 -0.516794,0.320247 -0.516799,0.320255 -0.02401,0.08269 -0.02401,0.08269 -0.993996,0.695444 -0.993994,0.695434 z"
                id="path744" 
            />
            <path
                style="fill:#000000;fill-opacity:0.145098"
                d="m 46.310444,49.283042 0.06822,0.08105 0.975884,-0.823421 0.975883,-0.82342 0.400767,-0.611369 0.400773,-0.611361 -0.10911,-0.129725 -0.109117,-0.129732 -0.202567,0.335085 -0.202572,0.335077 -0.999772,0.859062 -0.999836,0.858986 -0.133136,0.289651 -0.133135,0.289649 z"
                id="path1099"
            />
            <path
                style="fill:#000000;fill-opacity:0.145098"
                d="m 42.830703,46.647146 0.06958,0.08272 0.548151,-0.09168 0.548146,-0.09169 0.122759,-0.103252 0.122759,-0.103251 0.666856,-0.198282 0.666858,-0.198282 0.411162,-0.279053 0.411162,-0.279053 1.047547,-0.644285 1.047547,-0.644285 -0.02595,-0.188827 -0.02594,-0.188819 0.205513,-0.26759 0.205512,-0.267589 -1.217485,0.984162 -1.217486,0.984164 -1.82815,0.706065 -1.828157,0.706058 z"
                id="path1100"
            />
            <path
                d="m 57.414394,36.222961 -0.1037,0.53025 -0.1037,0.53025 -0.52003,0.68028 -0.52002,0.68027 -0.86306,0.73342 -0.86306,0.73342 -0.66863,0.38341 -0.66863,0.3834 -0.3359,0.0997 -0.3359,0.0997 v -0.26143 -0.26143 l 0.65836,-0.28498 0.65836,-0.28498 0.99809,-0.73837 0.9981,-0.73837 0.67066,-0.84845 0.67065,-0.84845 -0.0971,-0.81156 -0.0971,-0.81157 0.23645,0.40308 0.23645,0.40308 -0.46639,-0.88677 h -0.15522 l -0.63642,0.93719 -0.63644,0.93719 -0.6064,0.46252 -0.60639,0.46252 0.13526,-0.23079 0.13527,-0.23079 0.43508,-0.56431 0.43508,-0.5643 0.52064,-0.92708 0.52063,-0.92707 h 0.0612 0.0612 l -0.16738,0.44338 -0.16738,0.44339 0.14712,-0.16124 0.14713,-0.16123 0.26602,-0.68833"
                style="fill:#000000;fill-opacity:0.145098"
                id="path1"
            />
            <path
                d="m 21.316492,32.328951 0.1037,0.53025 0.1037,0.53025 0.52003,0.68028 0.52002,0.68027 0.86306,0.73342 0.86306,0.73342 0.66863,0.38341 0.66863,0.3834 0.3359,0.0997 0.3359,0.0997 v -0.26143 -0.26143 l -0.65836,-0.28498 -0.65836,-0.28498 -0.99809,-0.73837 -0.9981,-0.73837 -0.67066,-0.84845 -0.67065,-0.84845 0.0971,-0.81156 0.0971,-0.81157 -0.23645,0.40308 -0.23645,0.40308 0.46639,-0.88677 h 0.15522 l 0.63642,0.93719 0.63644,0.93719 0.6064,0.46252 0.60639,0.46252 -0.13526,-0.23079 -0.13527,-0.23079 -0.43508,-0.56431 -0.43508,-0.5643 -0.52064,-0.92708 -0.52063,-0.92707 h -0.0612 -0.0612 l 0.16738,0.44338 0.16738,0.44339 -0.14712,-0.16124 -0.14713,-0.16123 -0.26602,-0.68833"
                style="fill:#000000;fill-opacity:0.145098"
                id="path1117"
            />
            <path
                style="fill:#000000;fill-opacity:0.145098"
                d="m 50.641288,35.328285 0.09352,0.0542 0.484508,-0.27226 0.484502,-0.272266 0.08043,-0.138784 0.08043,-0.138783 0.559994,-0.41282 0.559996,-0.412819 0.292063,-0.402024 0.292063,-0.402024 0.766739,-0.961546 0.766738,-0.961546 -0.08849,-0.168815 -0.08848,-0.168811 0.102511,-0.321452 0.10251,-0.321452 -0.81125,1.338924 -0.811253,1.338925 -1.480052,1.284564 -1.480061,1.284559 z"
                id="path1122"
            />
            <path
                style="fill:#000000;fill-opacity:0.145098"
                d="m 51.999309,30.692972 0.07523,0.0257 0.155737,-0.6281 0.155746,-0.628105 -0.0074,-0.144167 -0.0073,-0.14421 0.256761,-0.52328 0.256762,-0.523281 0.100202,-0.712224 0.100211,-0.71223 -0.03638,-0.07409 -0.03638,-0.07409 -0.533177,1.15024 -0.533176,1.150238 -0.01105,0.905962 -0.01104,0.905959 z"
                id="path1123"
            />
            <path
                style="fill:#000000;fill-opacity:0.145098"
                d="m 50.330752,30.493335 -0.258689,0.874949 0.06027,0.221134 0.06027,0.221132 0.0875,-0.05505 0.0875,-0.05505 0.216053,-1.009938 0.216054,-1.009936 -0.105155,-0.03109 -0.105154,-0.03109 z"
                id="path1124"
            />
            <path
                style="fill:#000000;fill-opacity:0.145098"
                d="m 17.456702,52.133764 -0.01373,0.346105 0.191624,0.117346 0.191623,0.117346 0.610873,0.855307 0.610875,0.855308 0.404183,0.485512 0.40418,0.485503 0.343055,0.391099 0.343057,0.391109 1.119603,0.771209 1.119604,0.77121 0.146042,-0.0306 0.146043,-0.03061 0.79565,0.489665 0.795652,0.489673 0.03171,0.112995 0.03171,0.112984 0.544934,0.0652 0.544933,0.06519 0.333495,0.290812 0.333495,0.29081 0.739066,0.237542 0.739063,0.237532 0.110369,-0.03098 0.110368,-0.03098 -0.425264,-0.265678 -0.425262,-0.265678 -0.282869,-0.303867 -0.282871,-0.303877 -0.555124,-0.114631 -0.555123,-0.11463 -0.667716,-0.356782 -0.667718,-0.356791 -0.619703,-0.242068 -0.619704,-0.242068 -0.354759,-0.448336 -0.354756,-0.448325 -0.413324,0.01145 -0.413325,0.01145 -0.812878,-0.700368 -0.81288,-0.700368 -0.08945,-0.318705 -0.08945,-0.318705 -0.261921,-0.152621 -0.261922,-0.152621 -0.404585,-0.656516 -0.404585,-0.656516 -0.284608,-0.445652 -0.284607,-0.445641 -0.119276,-0.424979 -0.119273,-0.42497 -0.124638,0.03498 -0.12464,0.03498 0.05931,0.282825 0.05931,0.282823 z"
                id="path1125"
            />
            <path
                style="fill:#000000;fill-opacity:0.145098"
                d="m 19.474191,37.543554 0.06031,-0.0518 0.377874,0.525333 0.377885,0.525334 0.04667,0.136603 0.04677,0.13661 0.432743,0.39049 0.432744,0.39049 0.357568,0.624058 0.35757,0.624064 -0.0063,0.0823 -0.0063,0.0823 -0.922242,-0.869942 -0.922241,-0.86994 -0.346738,-0.837056 -0.346728,-0.837056 z"
                id="path1126"
            />
            <path
                style="display:inline;fill:#000000;fill-opacity:0.145098;stroke-width:0.655273"
                d="m 110.77361,148.4818 h -0.0712 l 0.48265,-0.49737 0.48266,-0.49737 h 0.0712 0.0712 l -0.48266,0.49737 -0.48265,0.49737 z"
                id="path1639"
                transform="matrix(1.2185697,0,0,1.2200384,-86.142031,-144.508)"
            />
            <path
                style="display:inline;fill:#000000;fill-opacity:0.145098;stroke-width:0.655273"
                d="m 104.4119,147.29802 -0.17785,0.10464 v -0.0712 -0.0712 l 1.60062,-1.19768 1.60061,-1.19768 0.79247,-0.83557 0.79246,-0.83556 0.55192,-0.98792 0.55192,-0.98792 0.33227,-0.85946 0.33228,-0.85944 -0.0872,0.42631 -0.0872,0.42633 -0.42716,1.026 -0.42715,1.02601 -0.5326,0.82136 -0.53261,0.82137 -0.78211,0.71052 -0.78211,0.71054 -1.27034,0.86296 -1.27033,0.86297 z"
                id="path1638"
                transform="matrix(1.2185697,0,0,1.2200384,-86.142031,-144.508)"
            />
            <path
                style="display:inline;fill:#000000;fill-opacity:0.145098;stroke-width:0.798977"
                d="m 35.233482,35.169438 h -0.05264 l -0.597477,-0.625282 -0.597465,-0.625269 -1.534431,-1.037948 -1.534435,-1.03796 -0.693781,-0.626795 -0.69378,-0.626782 -0.774426,-1.006446 -0.774437,-1.006434 -0.518404,-1.143286 -0.518392,-1.143286 0.0736,-0.07357 0.0736,-0.07357 0.228165,0.569014 0.228165,0.569026 0.592359,0.95357 0.592371,0.95357 0.979889,1.012375 0.979901,1.012388 1.653915,1.180082 1.653913,1.180095 0.643307,0.712038 0.643271,0.712064 v 0.08613 0.08613 z"
                id="path1637"
            />
            <path
                style="display:inline;fill:#000000;fill-opacity:0.145098;stroke-width:0.565148"
                d="m 37.819699,35.637658 -0.06276,0.0362 v -1.662602 -1.662598 h 0.175279 0.175316 l -0.112718,1.62646 -0.112718,1.626454 z"
                id="path1633"
            />
            <path
                style="display:inline;fill:#000000;fill-opacity:0.145098;stroke-width:0.580112"
                d="m 43.165498,27.58709 0.09933,-0.03948 -0.150434,0.259459 -0.150421,0.259454 -0.498014,0.544125 -0.498002,0.544126 -0.615656,0.393634 -0.615679,0.393631 -0.510957,0.183679 -0.510958,0.18368 -0.717579,0.187631 -0.717567,0.187633 1.271073,-0.471246 1.271063,-0.471254 0.626276,-0.441054 0.626265,-0.441056 0.496019,-0.616755 0.496031,-0.61676 z"
                id="path1629"
            />
            <path
                style="display:inline;fill:#000000;fill-opacity:0.145098;stroke-width:0.591081"
                d="m 32.871201,28.425015 0.04448,-0.134872 0.415981,0.37469 0.415968,0.374688 0.812755,0.458496 0.812732,0.458502 0.868089,0.334064 0.868087,0.33407 -1.171391,-0.361001 -1.171384,-0.361004 -0.969937,-0.671369 -0.969914,-0.671376 z"
                id="path1628"
            />
            <path
                style="display:inline;fill:#000000;fill-opacity:0.145098;stroke-width:0.798977"
                d="M 30.146485,9.0113608 29.38272,9.3151424 29.524674,9.031462 29.666633,8.747769 30.525478,8.5740607 31.384312,8.4003491 32.3539,8.6667746 33.323489,8.9332 l 0.38589,0.3596932 0.385865,0.3596873 0.219358,0.4399475 0.219358,0.439948 -0.116052,-0.0325 -0.116169,-0.03253 L 33.898835,9.9495201 33.495956,9.4315994 32.203071,9.0695528 30.910175,8.707503 Z"
                id="path1625"
            />
            <path
                style="display:inline;fill:#000000;fill-opacity:0.145098;stroke-width:0.866485"
                d="M 30.532813,40.723376 29.3983,40.5224 l 0.524967,-0.06906 0.52497,-0.06908 1.237351,0.358786 1.237355,0.35877 0.786226,0.662659 0.786237,0.662668 0.215968,0.455907 0.215979,0.4559 -0.166988,-0.01124 -0.167212,-0.01125 -0.473592,-0.676171 -0.473614,-0.676159 -0.989244,-0.519919 -0.989232,-0.519912 z"
                id="path1623"
            />
            <path
                style="display:inline;fill:#000000;fill-opacity:0.145098;stroke-width:0.672325"
                d="m 111.44158,168.41682 h -0.26405 v -0.0765 -0.0765 l 0.40143,-0.15837 0.40145,-0.15837 0.80168,-0.19159 0.80168,-0.19158 0.0585,0.0585 0.0586,0.0585 -0.27635,0.0838 -0.27636,0.0838 -0.40829,0.20839 -0.40829,0.2084 0.0885,-0.14295 0.0885,-0.14295 -0.1181,0.005 -0.1181,0.005 -0.28336,0.21407 -0.28337,0.21406 z"
                id="path1448"
                transform="matrix(1.2185697,0,0,1.2200384,-86.142031,-144.508)"
            />
            <path
                style="display:inline;fill:#000000;fill-opacity:0.145098;stroke-width:0.819768"
                d="m 25.129764,61.153462 -0.444717,0.0998 0.345306,-0.280023 0.345294,-0.280048 1.077789,0.0024 1.077776,0.0024 0.266842,0.17244 0.26683,0.17244 -1.245195,0.0049 -1.245208,0.0049 z"
                id="path1421"
            />
            <path
                style="display:inline;fill:#000000;fill-opacity:0.145098;stroke-width:0.819768"
                d="m 26.148617,32.90962 h 0.09554 l -0.783345,-0.84495 -0.783321,-0.844962 -0.4071,-0.533657 -0.407088,-0.533657 0.184297,0.382165 0.184296,0.382177 0.910698,0.996454 0.910686,0.99643 z"
                id="path1411"
            />
            <path
                style="display:inline;fill:#000000;fill-opacity:0.145098;stroke-width:0.819768"
                d="m 30.668681,32.823724 0.04448,0.0037 v -0.0793 -0.07918 l -1.289673,-0.674157 -1.289673,-0.674132 -1.433355,-1.425724 -1.433343,-1.425713 -0.519123,-1.01229 -0.51911,-1.012303 -0.06129,0.06125 -0.06117,0.06125 0.390503,0.773261 0.390515,0.77326 0.631402,0.866715 0.631378,0.866703 1.133854,0.935257 1.133843,0.935245 1.103074,0.551335 1.103073,0.551336 z"
                id="path1409" 
            />
            <path
                style="display:inline;fill:#000000;fill-opacity:0.145098;stroke-width:0.819768"
                d="m 30.218053,59.091438 0.04448,0.01586 v -0.144233 -0.144208 l -1.044984,-0.313038 -1.044997,-0.313013 -1.478064,-0.83242 -1.478088,-0.832444 -1.268568,-1.245196 -1.26858,-1.245208 -1.354391,-1.975047 -1.354392,-1.975046 -0.909199,-0.960073 -0.909187,-0.960061 1.047422,1.42309 1.047409,1.423089 0.799552,1.245196 0.799553,1.245195 1.039976,1.215769 1.039976,1.215768 1.097078,0.782862 1.097078,0.78285 1.189593,0.556679 1.189592,0.556679 0.837145,0.23049 0.837145,0.230502 z"
                id="path1387"
            />
            <path
                style="display:inline;fill:#000000;fill-opacity:0.145098;stroke-width:1.0846"
                d="m 37.690005,10.271828 -0.120811,-0.05825 0.122311,-1.3188451 0.12231,-1.3188447 0.255782,-0.4051216 0.255784,-0.4051225 -0.167603,0.6570947 -0.167603,0.6571059 -0.08967,1.1251154 -0.08968,1.1251219 z"
                id="path1820"
            />
            <path
                style="fill:#000000;fill-opacity:0.145098"
                d="m 31.590051,45.492975 -0.911423,-0.04197 -0.189222,-0.129336 -0.189222,-0.129337 0.08066,-0.06466 0.08066,-0.06467 1.025019,0.126441 1.02502,0.126439 -0.005,0.109534 -0.005,0.109534 z"
                id="path2016"
            />
            <path
                style="display:inline;fill:#000000;fill-opacity:0.145098;stroke-width:0.798977"
                d="m 28.916016,12.10481 -0.55061,0.610286 0.0018,-0.31721 0.0018,-0.317223 0.693417,-0.535687 0.693407,-0.535686 0.987424,-0.189939 0.987425,-0.189939 0.505191,0.151898 0.505165,0.151904 0.391335,0.297538 0.391336,0.297537 -0.118457,0.02219 -0.118576,0.02221 -0.590441,-0.286283 -0.590416,-0.28629 -1.31967,0.247187 -1.319681,0.247188 z"
                id="path2017"
            />
            <path
                style="display:inline;fill:#000000;fill-opacity:0.145098;stroke-width:0.798977"
                d="m 41.309012,43.114283 -0.314273,0.827991 -0.03617,-0.402128 -0.03619,-0.402131 0.499176,-0.886682 0.499159,-0.886687 0.804255,-0.512459 0.804266,-0.512465 0.527812,-0.108665 0.527803,-0.108675 -0.0257,0.124022 -0.02574,0.124187 -0.79485,0.276217 -0.794838,0.276234 -0.660251,0.68157 -0.660241,0.681562 z"
                id="path2018"
            />
            <path
                style="fill:#000000;fill-opacity:0.145098"
                d="m 49.307162,43.14452 -0.07796,-0.01556 0.18071,-0.621376 0.180711,-0.621382 0.07879,-0.120957 0.07873,-0.12104 0.04071,-0.581455 0.04071,-0.581458 0.270973,-0.666241 0.270973,-0.666248 0.06867,-0.0458 0.06866,-0.0458 -0.116491,1.262441 -0.116491,1.26244 -0.445359,0.789014 -0.445365,0.789008 z"
                id="path2019" 
            />
            <path
                style="fill:#000000;fill-opacity:0.145098"
                d="m 45.02148,9.3140923 0.0012,-0.1059324 -1.276797,-0.012702 -1.276796,-0.012702 -0.702602,0.2018338 -0.702601,0.2018238 -0.002,0.1694986 -0.002,0.1695084 0.372138,-0.1217729 0.372137,-0.1217636 1.318154,0.00128 1.318153,0.00138 0.289878,-0.1326419 0.289875,-0.1326413 z"
                id="path2020" 
            />
            <path
                style="fill:#000000;fill-opacity:0.145098"
                d="m 44.447047,8.3191396 0.906251,0.1056619 0.179705,0.1422634 0.179707,0.1422642 -0.08499,0.058856 -0.08499,0.058865 L 44.529075,8.6291703 43.51542,8.4312916 43.52813,8.3223827 43.54084,8.213474 Z"
                id="path2021"
            />
            <path
                style="display:inline;fill:#000000;fill-opacity:0.145098;stroke-width:0.798977"
                d="m 41.687089,11.604578 -0.68115,0.460059 0.07799,-0.307479 0.07799,-0.307492 0.801842,-0.353324 0.801831,-0.353325 1.004131,0.05295 1.004132,0.05295 0.453874,0.268866 0.453848,0.268866 0.308351,0.382873 0.308353,0.382871 -0.120318,-0.0069 -0.120438,-0.0069 -0.504326,-0.419802 -0.504301,-0.419803 -1.340397,-0.07724 -1.340408,-0.07724 z"
                id="path2022" 
            />
            <path
                style="display:inline;fill:#000000;fill-opacity:0.145098;stroke-width:0.819768"
                d="m 24.137414,38.94323 h 0.09554 l -0.783345,-0.84495 -0.783321,-0.844962 -0.4071,-0.533657 -0.407088,-0.533657 0.184297,0.382165 0.184296,0.382177 0.910698,0.996454 0.910686,0.99643 z"
                id="path2023"
            />
            <path
                style="display:inline;fill:#000000;fill-opacity:0.145098;stroke-width:0.819768"
                d="m 53.490743,38.471869 0.0016,-0.09553 -0.857615,0.769459 -0.857626,0.769434 -0.540227,0.398342 -0.540226,0.398329 0.38512,-0.178039 0.385133,-0.178038 1.011176,-0.894323 1.011151,-0.894312 z"
                id="path2024"
            />
            <path
                style="fill:#000000;fill-opacity:0.145098"
                d="m 40.62373,62.804174 -0.02721,-0.0747 0.624838,-0.168351 0.624842,-0.16836 0.144285,0.0045 0.144327,0.0044 0.518005,-0.267245 0.518005,-0.267246 0.71006,-0.114536 0.710066,-0.114535 0.07479,0.03492 0.07479,0.03492 -1.139271,0.556229 -1.139269,0.556229 -0.905556,0.02929 -0.905553,0.02928 z"
                id="path2025"
            />
            <path
                style="fill:#000000;fill-opacity:0.145098"
                d="m 25.471243,54.073348 -0.04714,0.09487 1.144151,0.566826 1.144149,0.566825 0.720443,0.123883 0.720439,0.123892 0.07549,-0.151773 0.07549,-0.151783 -0.388057,-0.05223 -0.388051,-0.05223 -1.186359,-0.574529 -1.186315,-0.574618 -0.318714,-0.0067 -0.318712,-0.0067 z"
                id="path2026"
            />
            <path
                style="display:inline;fill:#000000;fill-opacity:0.145098;stroke-width:0.580112"
                d="m 46.677595,21.807586 0.06518,-0.08472 0.0034,0.299897 0.0034,0.299885 -0.149768,0.722261 -0.149757,0.722255 -0.327817,0.653081 -0.327839,0.653091 -0.345194,0.419114 -0.345194,0.419115 -0.520742,0.52816 -0.520731,0.528155 0.851393,-1.054908 0.85138,-1.054908 0.312697,-0.699265 0.312687,-0.699261 0.110916,-0.783657 0.110926,-0.783668 z"
                id="path2027"
            />
            <path
                style="display:inline;fill:#000000;fill-opacity:0.145098;stroke-width:0.580112"
                d="m 30.726717,27.236305 0.03999,0.09913 -0.260227,-0.149102 -0.260222,-0.149089 -0.54667,-0.495218 -0.546672,-0.495206 -0.396785,-0.61363 -0.396782,-0.613653 -0.186296,-0.510009 -0.186297,-0.51001 -0.191307,-0.716607 -0.191309,-0.716596 0.477756,1.26864 0.477763,1.268631 0.444259,0.624007 0.444261,0.623996 0.619289,0.49285 0.619295,0.492863 z"
                id="path2028"
            />
            <path
                style="display:inline;fill:#000000;fill-opacity:0.145098;stroke-width:0.798977"
                d="m 28.234895,44.479337 0.806352,0.159426 -0.273201,0.161205 -0.273212,0.161212 -0.815605,-0.320278 -0.815599,-0.320268 -0.669715,-0.750043 -0.669718,-0.750042 -0.12886,-0.511552 -0.128844,-0.511533 0.05457,-0.488563 0.05457,-0.488563 0.07983,0.09029 0.07991,0.09038 0.05726,0.653682 0.05725,0.653663 0.889341,1.005833 0.889349,1.005842 z"
                id="path2029"
            />
            <path
                style="fill:#000000;fill-opacity:0.145098"
                d="m 29.111963,50.213432 0.744083,0.333714 -0.03284,-0.11024 -0.03284,-0.110238 -2.611777,-1.409551 -2.611777,-1.409551 -1.055599,-0.513801 -1.055598,-0.513802 0.04944,0.16598 0.04944,0.16598 2.906689,1.533899 2.906689,1.533898 z"
                id="path2"
            />
            <path
                style="fill:#000000;fill-opacity:0.145098"
                d="m 23.872021,45.366407 0.476,0.335535 -0.077,-0.23348 -0.077,-0.233481 -0.67282,-0.49428 -0.67282,-0.494281 -0.70026,-0.4119 -0.70027,-0.411901 -1.08538,-0.714341 -1.08538,-0.714341 -0.49428,-0.447575 -0.49428,-0.447574 -0.32952,-0.230741 -0.32953,-0.23074 0.65832,0.699625 0.65832,0.699624 1.48357,1.125344 1.48356,1.125343 0.74142,0.371814 0.74142,0.371814 z"
                id="path3" 
            />
        </g> -->
    </g>
</svg>